<mxfile host="app.diagrams.net" modified="2022-07-08T17:55:42.451Z" agent="5.0 (Windows NT 10.0; Win64; x64) AppleWebKit/537.36 (KHTML, like Gecko) Chrome/103.0.0.0 Safari/537.36" etag="P1sXk6gl7QV1MpilWVeB" version="20.0.4" type="github">
  <diagram id="79ZjxNU_IsoWT_pZXwwr" name="Page-1">
    <mxGraphModel dx="1303" dy="792" grid="1" gridSize="10" guides="1" tooltips="1" connect="1" arrows="1" fold="1" page="1" pageScale="1" pageWidth="1654" pageHeight="2336" math="0" shadow="0">
      <root>
        <mxCell id="0" />
        <mxCell id="1" parent="0" />
        <mxCell id="RXlQQFgITEn8rvyz34GZ-1" value="" style="verticalLabelPosition=bottom;verticalAlign=top;html=1;shape=mxgraph.basic.rect;fillColor2=none;strokeWidth=3;size=20;indent=5;shadow=0;sketch=0;fillStyle=auto;fontFamily=Times New Roman;fontSize=27;fillColor=none;gradientDirection=north;dashed=1;fontColor=#333333;strokeColor=#808080;" vertex="1" parent="1">
          <mxGeometry x="665" y="1940" width="490" height="230" as="geometry" />
        </mxCell>
        <mxCell id="RXlQQFgITEn8rvyz34GZ-2" value="" style="group" vertex="1" connectable="0" parent="1">
          <mxGeometry x="516" y="2242" width="240" height="30" as="geometry" />
        </mxCell>
        <mxCell id="RXlQQFgITEn8rvyz34GZ-3" value="" style="verticalLabelPosition=bottom;verticalAlign=top;html=1;shape=mxgraph.basic.patternFillRect;fillStyle=auto;step=5;fillStrokeWidth=0.2;fillStrokeColor=#dddddd;gradientDirection=north;strokeColor=#36393d;shadow=0;sketch=0;fillColor=#eeeeee;" vertex="1" parent="RXlQQFgITEn8rvyz34GZ-2">
          <mxGeometry width="30" height="30" as="geometry" />
        </mxCell>
        <mxCell id="RXlQQFgITEn8rvyz34GZ-4" value="" style="verticalLabelPosition=bottom;verticalAlign=top;html=1;shape=mxgraph.basic.patternFillRect;fillStyle=auto;step=5;fillStrokeWidth=0.2;fillStrokeColor=#dddddd;gradientDirection=north;strokeColor=#36393d;shadow=0;sketch=0;fillColor=#eeeeee;" vertex="1" parent="RXlQQFgITEn8rvyz34GZ-2">
          <mxGeometry x="120" width="30" height="30" as="geometry" />
        </mxCell>
        <mxCell id="RXlQQFgITEn8rvyz34GZ-5" value="" style="verticalLabelPosition=bottom;verticalAlign=top;html=1;shape=mxgraph.basic.patternFillRect;fillStyle=auto;step=5;fillStrokeWidth=0.2;fillStrokeColor=#dddddd;gradientDirection=north;strokeColor=#36393d;shadow=0;sketch=0;fillColor=#eeeeee;" vertex="1" parent="RXlQQFgITEn8rvyz34GZ-2">
          <mxGeometry x="30" width="30" height="30" as="geometry" />
        </mxCell>
        <mxCell id="RXlQQFgITEn8rvyz34GZ-6" value="" style="verticalLabelPosition=bottom;verticalAlign=top;html=1;shape=mxgraph.basic.patternFillRect;fillStyle=auto;step=5;fillStrokeWidth=0.2;fillStrokeColor=#dddddd;gradientDirection=north;strokeColor=#36393d;shadow=0;sketch=0;fillColor=#eeeeee;" vertex="1" parent="RXlQQFgITEn8rvyz34GZ-2">
          <mxGeometry x="150" width="30" height="30" as="geometry" />
        </mxCell>
        <mxCell id="RXlQQFgITEn8rvyz34GZ-7" value="" style="verticalLabelPosition=bottom;verticalAlign=top;html=1;shape=mxgraph.basic.patternFillRect;fillStyle=auto;step=5;fillStrokeWidth=0.2;fillStrokeColor=#dddddd;gradientDirection=north;strokeColor=#36393d;shadow=0;sketch=0;fillColor=#eeeeee;" vertex="1" parent="RXlQQFgITEn8rvyz34GZ-2">
          <mxGeometry x="60" width="30" height="30" as="geometry" />
        </mxCell>
        <mxCell id="RXlQQFgITEn8rvyz34GZ-8" value="" style="verticalLabelPosition=bottom;verticalAlign=top;html=1;shape=mxgraph.basic.patternFillRect;fillStyle=auto;step=5;fillStrokeWidth=0.2;fillStrokeColor=#dddddd;gradientDirection=north;strokeColor=#36393d;shadow=0;sketch=0;fillColor=#eeeeee;" vertex="1" parent="RXlQQFgITEn8rvyz34GZ-2">
          <mxGeometry x="180" width="30" height="30" as="geometry" />
        </mxCell>
        <mxCell id="RXlQQFgITEn8rvyz34GZ-9" value="" style="verticalLabelPosition=bottom;verticalAlign=top;html=1;shape=mxgraph.basic.patternFillRect;fillStyle=auto;step=5;fillStrokeWidth=0.2;fillStrokeColor=#dddddd;gradientDirection=north;strokeColor=#36393d;shadow=0;sketch=0;fillColor=#eeeeee;" vertex="1" parent="RXlQQFgITEn8rvyz34GZ-2">
          <mxGeometry x="90" width="30" height="30" as="geometry" />
        </mxCell>
        <mxCell id="RXlQQFgITEn8rvyz34GZ-10" value="" style="verticalLabelPosition=bottom;verticalAlign=top;html=1;shape=mxgraph.basic.patternFillRect;fillStyle=auto;step=5;fillStrokeWidth=0.2;fillStrokeColor=#dddddd;gradientDirection=north;strokeColor=#36393d;shadow=0;sketch=0;fillColor=#eeeeee;" vertex="1" parent="RXlQQFgITEn8rvyz34GZ-2">
          <mxGeometry x="210" width="30" height="30" as="geometry" />
        </mxCell>
        <mxCell id="RXlQQFgITEn8rvyz34GZ-22" value="" style="group;fillColor=#f5f5f5;gradientColor=#b3b3b3;strokeColor=#666666;" vertex="1" connectable="0" parent="1">
          <mxGeometry x="789" y="1981.5" width="240" height="30" as="geometry" />
        </mxCell>
        <mxCell id="RXlQQFgITEn8rvyz34GZ-23" value="" style="verticalLabelPosition=bottom;verticalAlign=top;html=1;shape=mxgraph.basic.patternFillRect;fillStyle=auto;step=5;fillStrokeWidth=0.2;fillStrokeColor=#dddddd;gradientDirection=north;strokeColor=#666666;shadow=0;sketch=0;fillColor=#f5f5f5;gradientColor=#000000;" vertex="1" parent="RXlQQFgITEn8rvyz34GZ-22">
          <mxGeometry width="30" height="30" as="geometry" />
        </mxCell>
        <mxCell id="RXlQQFgITEn8rvyz34GZ-24" value="" style="verticalLabelPosition=bottom;verticalAlign=top;html=1;shape=mxgraph.basic.patternFillRect;fillStyle=auto;step=5;fillStrokeWidth=0.2;fillStrokeColor=#dddddd;gradientDirection=north;strokeColor=#666666;shadow=0;sketch=0;fillColor=#f5f5f5;gradientColor=#b3b3b3;" vertex="1" parent="RXlQQFgITEn8rvyz34GZ-22">
          <mxGeometry x="120" width="30" height="30" as="geometry" />
        </mxCell>
        <mxCell id="RXlQQFgITEn8rvyz34GZ-25" value="" style="verticalLabelPosition=bottom;verticalAlign=top;html=1;shape=mxgraph.basic.patternFillRect;fillStyle=auto;step=5;fillStrokeWidth=0.2;fillStrokeColor=#dddddd;gradientDirection=north;strokeColor=#666666;shadow=0;sketch=0;fillColor=#f5f5f5;gradientColor=#000000;" vertex="1" parent="RXlQQFgITEn8rvyz34GZ-22">
          <mxGeometry x="30" width="30" height="30" as="geometry" />
        </mxCell>
        <mxCell id="RXlQQFgITEn8rvyz34GZ-26" value="" style="verticalLabelPosition=bottom;verticalAlign=top;html=1;shape=mxgraph.basic.patternFillRect;fillStyle=auto;step=5;fillStrokeWidth=0.2;fillStrokeColor=#dddddd;gradientDirection=north;strokeColor=#666666;shadow=0;sketch=0;fillColor=#f5f5f5;gradientColor=#b3b3b3;" vertex="1" parent="RXlQQFgITEn8rvyz34GZ-22">
          <mxGeometry x="150" width="30" height="30" as="geometry" />
        </mxCell>
        <mxCell id="RXlQQFgITEn8rvyz34GZ-27" value="" style="verticalLabelPosition=bottom;verticalAlign=top;html=1;shape=mxgraph.basic.patternFillRect;fillStyle=auto;step=5;fillStrokeWidth=0.2;fillStrokeColor=#dddddd;gradientDirection=north;strokeColor=#666666;shadow=0;sketch=0;fillColor=#f5f5f5;gradientColor=#b3b3b3;" vertex="1" parent="RXlQQFgITEn8rvyz34GZ-22">
          <mxGeometry x="60" width="30" height="30" as="geometry" />
        </mxCell>
        <mxCell id="RXlQQFgITEn8rvyz34GZ-28" value="" style="verticalLabelPosition=bottom;verticalAlign=top;html=1;shape=mxgraph.basic.patternFillRect;fillStyle=auto;step=5;fillStrokeWidth=0.2;fillStrokeColor=#dddddd;gradientDirection=north;strokeColor=#666666;shadow=0;sketch=0;fillColor=#f5f5f5;gradientColor=#b3b3b3;" vertex="1" parent="RXlQQFgITEn8rvyz34GZ-22">
          <mxGeometry x="180" width="30" height="30" as="geometry" />
        </mxCell>
        <mxCell id="RXlQQFgITEn8rvyz34GZ-29" value="" style="verticalLabelPosition=bottom;verticalAlign=top;html=1;shape=mxgraph.basic.patternFillRect;fillStyle=auto;step=5;fillStrokeWidth=0.2;fillStrokeColor=#dddddd;gradientDirection=north;strokeColor=#666666;shadow=0;sketch=0;fillColor=#f5f5f5;gradientColor=#b3b3b3;" vertex="1" parent="RXlQQFgITEn8rvyz34GZ-22">
          <mxGeometry x="90" width="30" height="30" as="geometry" />
        </mxCell>
        <mxCell id="RXlQQFgITEn8rvyz34GZ-30" value="" style="verticalLabelPosition=bottom;verticalAlign=top;html=1;shape=mxgraph.basic.patternFillRect;fillStyle=auto;step=5;fillStrokeWidth=0.2;fillStrokeColor=#dddddd;gradientDirection=north;strokeColor=#666666;shadow=0;sketch=0;fillColor=#f5f5f5;gradientColor=#b3b3b3;" vertex="1" parent="RXlQQFgITEn8rvyz34GZ-22">
          <mxGeometry x="210" width="30" height="30" as="geometry" />
        </mxCell>
        <mxCell id="RXlQQFgITEn8rvyz34GZ-31" value="" style="verticalLabelPosition=bottom;verticalAlign=top;html=1;shape=mxgraph.basic.patternFillRect;fillStyle=auto;step=5;fillStrokeWidth=0.2;fillStrokeColor=#dddddd;gradientDirection=north;strokeColor=#666666;shadow=0;sketch=0;fillColor=#f5f5f5;gradientColor=#b3b3b3;" vertex="1" parent="RXlQQFgITEn8rvyz34GZ-22">
          <mxGeometry x="210" width="30" height="30" as="geometry" />
        </mxCell>
        <mxCell id="RXlQQFgITEn8rvyz34GZ-32" value="" style="verticalLabelPosition=bottom;verticalAlign=top;html=1;shape=mxgraph.basic.patternFillRect;fillStyle=auto;step=5;fillStrokeWidth=0.2;fillStrokeColor=#dddddd;gradientDirection=north;strokeColor=#666666;shadow=0;sketch=0;fillColor=#f5f5f5;gradientColor=#b3b3b3;" vertex="1" parent="RXlQQFgITEn8rvyz34GZ-22">
          <mxGeometry x="180" width="30" height="30" as="geometry" />
        </mxCell>
        <mxCell id="RXlQQFgITEn8rvyz34GZ-33" value="" style="verticalLabelPosition=bottom;verticalAlign=top;html=1;shape=mxgraph.basic.patternFillRect;fillStyle=auto;step=5;fillStrokeWidth=0.2;fillStrokeColor=#dddddd;gradientDirection=north;strokeColor=#666666;shadow=0;sketch=0;fillColor=#f5f5f5;gradientColor=#b3b3b3;" vertex="1" parent="RXlQQFgITEn8rvyz34GZ-22">
          <mxGeometry x="210" width="30" height="30" as="geometry" />
        </mxCell>
        <mxCell id="RXlQQFgITEn8rvyz34GZ-34" value="" style="verticalLabelPosition=bottom;verticalAlign=top;html=1;shape=mxgraph.basic.patternFillRect;fillStyle=auto;step=5;fillStrokeWidth=0.2;fillStrokeColor=#dddddd;gradientDirection=north;strokeColor=#666666;shadow=0;sketch=0;fillColor=#f5f5f5;gradientColor=#b3b3b3;" vertex="1" parent="RXlQQFgITEn8rvyz34GZ-22">
          <mxGeometry x="180" width="30" height="30" as="geometry" />
        </mxCell>
        <mxCell id="RXlQQFgITEn8rvyz34GZ-35" value="" style="verticalLabelPosition=bottom;verticalAlign=top;html=1;shape=mxgraph.basic.patternFillRect;fillStyle=auto;step=5;fillStrokeWidth=0.2;fillStrokeColor=#dddddd;gradientDirection=north;strokeColor=#666666;shadow=0;sketch=0;fillColor=#f5f5f5;gradientColor=#b3b3b3;" vertex="1" parent="RXlQQFgITEn8rvyz34GZ-22">
          <mxGeometry x="150" width="30" height="30" as="geometry" />
        </mxCell>
        <mxCell id="RXlQQFgITEn8rvyz34GZ-36" value="" style="verticalLabelPosition=bottom;verticalAlign=top;html=1;shape=mxgraph.basic.patternFillRect;fillStyle=auto;step=5;fillStrokeWidth=0.2;fillStrokeColor=#dddddd;gradientDirection=north;strokeColor=#666666;shadow=0;sketch=0;fillColor=#f5f5f5;gradientColor=#b3b3b3;" vertex="1" parent="RXlQQFgITEn8rvyz34GZ-22">
          <mxGeometry x="210" width="30" height="30" as="geometry" />
        </mxCell>
        <mxCell id="RXlQQFgITEn8rvyz34GZ-37" value="" style="verticalLabelPosition=bottom;verticalAlign=top;html=1;shape=mxgraph.basic.patternFillRect;fillStyle=auto;step=5;fillStrokeWidth=0.2;fillStrokeColor=#dddddd;gradientDirection=north;strokeColor=#666666;shadow=0;sketch=0;fillColor=#f5f5f5;gradientColor=#b3b3b3;" vertex="1" parent="RXlQQFgITEn8rvyz34GZ-22">
          <mxGeometry x="180" width="30" height="30" as="geometry" />
        </mxCell>
        <mxCell id="RXlQQFgITEn8rvyz34GZ-38" value="" style="verticalLabelPosition=bottom;verticalAlign=top;html=1;shape=mxgraph.basic.patternFillRect;fillStyle=auto;step=5;fillStrokeWidth=0.2;fillStrokeColor=#dddddd;gradientDirection=north;strokeColor=#666666;shadow=0;sketch=0;fillColor=#f5f5f5;gradientColor=#b3b3b3;" vertex="1" parent="RXlQQFgITEn8rvyz34GZ-22">
          <mxGeometry x="150" width="30" height="30" as="geometry" />
        </mxCell>
        <mxCell id="RXlQQFgITEn8rvyz34GZ-39" value="" style="verticalLabelPosition=bottom;verticalAlign=top;html=1;shape=mxgraph.basic.patternFillRect;fillStyle=auto;step=5;fillStrokeWidth=0.2;fillStrokeColor=#dddddd;gradientDirection=north;strokeColor=#666666;shadow=0;sketch=0;fillColor=#f5f5f5;gradientColor=#b3b3b3;" vertex="1" parent="RXlQQFgITEn8rvyz34GZ-22">
          <mxGeometry x="210" width="30" height="30" as="geometry" />
        </mxCell>
        <mxCell id="RXlQQFgITEn8rvyz34GZ-40" value="" style="verticalLabelPosition=bottom;verticalAlign=top;html=1;shape=mxgraph.basic.patternFillRect;fillStyle=auto;step=5;fillStrokeWidth=0.2;fillStrokeColor=#dddddd;gradientDirection=north;strokeColor=#666666;shadow=0;sketch=0;fillColor=#f5f5f5;gradientColor=#b3b3b3;" vertex="1" parent="RXlQQFgITEn8rvyz34GZ-22">
          <mxGeometry x="180" width="30" height="30" as="geometry" />
        </mxCell>
        <mxCell id="RXlQQFgITEn8rvyz34GZ-41" value="" style="verticalLabelPosition=bottom;verticalAlign=top;html=1;shape=mxgraph.basic.patternFillRect;fillStyle=auto;step=5;fillStrokeWidth=0.2;fillStrokeColor=#dddddd;gradientDirection=north;strokeColor=#666666;shadow=0;sketch=0;fillColor=#f5f5f5;gradientColor=#b3b3b3;" vertex="1" parent="RXlQQFgITEn8rvyz34GZ-22">
          <mxGeometry x="150" width="30" height="30" as="geometry" />
        </mxCell>
        <mxCell id="RXlQQFgITEn8rvyz34GZ-42" value="" style="verticalLabelPosition=bottom;verticalAlign=top;html=1;shape=mxgraph.basic.patternFillRect;fillStyle=auto;step=5;fillStrokeWidth=0.2;fillStrokeColor=#dddddd;gradientDirection=north;strokeColor=#666666;shadow=0;sketch=0;fillColor=#f5f5f5;gradientColor=#b3b3b3;" vertex="1" parent="RXlQQFgITEn8rvyz34GZ-22">
          <mxGeometry x="120" width="30" height="30" as="geometry" />
        </mxCell>
        <mxCell id="RXlQQFgITEn8rvyz34GZ-43" value="" style="verticalLabelPosition=bottom;verticalAlign=top;html=1;shape=mxgraph.basic.patternFillRect;fillStyle=auto;step=5;fillStrokeWidth=0.2;fillStrokeColor=#dddddd;gradientDirection=north;strokeColor=#666666;shadow=0;sketch=0;fillColor=#f5f5f5;gradientColor=#b3b3b3;" vertex="1" parent="RXlQQFgITEn8rvyz34GZ-22">
          <mxGeometry x="90" width="30" height="30" as="geometry" />
        </mxCell>
        <mxCell id="RXlQQFgITEn8rvyz34GZ-44" value="" style="verticalLabelPosition=bottom;verticalAlign=top;html=1;shape=mxgraph.basic.patternFillRect;fillStyle=auto;step=5;fillStrokeWidth=0.2;fillStrokeColor=#dddddd;gradientDirection=north;strokeColor=#666666;shadow=0;sketch=0;fillColor=#f5f5f5;gradientColor=#b3b3b3;" vertex="1" parent="RXlQQFgITEn8rvyz34GZ-22">
          <mxGeometry x="210" width="30" height="30" as="geometry" />
        </mxCell>
        <mxCell id="RXlQQFgITEn8rvyz34GZ-45" value="" style="verticalLabelPosition=bottom;verticalAlign=top;html=1;shape=mxgraph.basic.patternFillRect;fillStyle=auto;step=5;fillStrokeWidth=0.2;fillStrokeColor=#dddddd;gradientDirection=north;strokeColor=#666666;shadow=0;sketch=0;fillColor=#f5f5f5;gradientColor=#b3b3b3;" vertex="1" parent="RXlQQFgITEn8rvyz34GZ-22">
          <mxGeometry x="180" width="30" height="30" as="geometry" />
        </mxCell>
        <mxCell id="RXlQQFgITEn8rvyz34GZ-46" value="" style="verticalLabelPosition=bottom;verticalAlign=top;html=1;shape=mxgraph.basic.patternFillRect;fillStyle=auto;step=5;fillStrokeWidth=0.2;fillStrokeColor=#dddddd;gradientDirection=north;strokeColor=#666666;shadow=0;sketch=0;fillColor=#f5f5f5;gradientColor=#b3b3b3;" vertex="1" parent="RXlQQFgITEn8rvyz34GZ-22">
          <mxGeometry x="150" width="30" height="30" as="geometry" />
        </mxCell>
        <mxCell id="RXlQQFgITEn8rvyz34GZ-47" value="" style="verticalLabelPosition=bottom;verticalAlign=top;html=1;shape=mxgraph.basic.patternFillRect;fillStyle=auto;step=5;fillStrokeWidth=0.2;fillStrokeColor=#dddddd;gradientDirection=north;strokeColor=#666666;shadow=0;sketch=0;fillColor=#f5f5f5;gradientColor=#b3b3b3;" vertex="1" parent="RXlQQFgITEn8rvyz34GZ-22">
          <mxGeometry x="120" width="30" height="30" as="geometry" />
        </mxCell>
        <mxCell id="RXlQQFgITEn8rvyz34GZ-48" value="" style="verticalLabelPosition=bottom;verticalAlign=top;html=1;shape=mxgraph.basic.patternFillRect;fillStyle=auto;step=5;fillStrokeWidth=0.2;fillStrokeColor=#dddddd;gradientDirection=north;strokeColor=#666666;shadow=0;sketch=0;fillColor=#f5f5f5;gradientColor=#b3b3b3;" vertex="1" parent="RXlQQFgITEn8rvyz34GZ-22">
          <mxGeometry x="90" width="30" height="30" as="geometry" />
        </mxCell>
        <mxCell id="RXlQQFgITEn8rvyz34GZ-49" value="" style="verticalLabelPosition=bottom;verticalAlign=top;html=1;shape=mxgraph.basic.patternFillRect;fillStyle=auto;step=5;fillStrokeWidth=0.2;fillStrokeColor=#dddddd;gradientDirection=north;strokeColor=#666666;shadow=0;sketch=0;fillColor=#f5f5f5;gradientColor=#b3b3b3;" vertex="1" parent="RXlQQFgITEn8rvyz34GZ-22">
          <mxGeometry x="210" width="30" height="30" as="geometry" />
        </mxCell>
        <mxCell id="RXlQQFgITEn8rvyz34GZ-50" value="" style="verticalLabelPosition=bottom;verticalAlign=top;html=1;shape=mxgraph.basic.patternFillRect;fillStyle=auto;step=5;fillStrokeWidth=0.2;fillStrokeColor=#dddddd;gradientDirection=north;strokeColor=#666666;shadow=0;sketch=0;fillColor=#f5f5f5;gradientColor=#b3b3b3;" vertex="1" parent="RXlQQFgITEn8rvyz34GZ-22">
          <mxGeometry x="180" width="30" height="30" as="geometry" />
        </mxCell>
        <mxCell id="RXlQQFgITEn8rvyz34GZ-51" value="" style="verticalLabelPosition=bottom;verticalAlign=top;html=1;shape=mxgraph.basic.patternFillRect;fillStyle=auto;step=5;fillStrokeWidth=0.2;fillStrokeColor=#dddddd;gradientDirection=north;strokeColor=#666666;shadow=0;sketch=0;fillColor=#f5f5f5;gradientColor=#b3b3b3;" vertex="1" parent="RXlQQFgITEn8rvyz34GZ-22">
          <mxGeometry x="150" width="30" height="30" as="geometry" />
        </mxCell>
        <mxCell id="RXlQQFgITEn8rvyz34GZ-52" value="" style="verticalLabelPosition=bottom;verticalAlign=top;html=1;shape=mxgraph.basic.patternFillRect;fillStyle=auto;step=5;fillStrokeWidth=0.2;fillStrokeColor=#dddddd;gradientDirection=north;strokeColor=#666666;shadow=0;sketch=0;fillColor=#f5f5f5;gradientColor=#b3b3b3;" vertex="1" parent="RXlQQFgITEn8rvyz34GZ-22">
          <mxGeometry x="120" width="30" height="30" as="geometry" />
        </mxCell>
        <mxCell id="RXlQQFgITEn8rvyz34GZ-53" value="" style="verticalLabelPosition=bottom;verticalAlign=top;html=1;shape=mxgraph.basic.patternFillRect;fillStyle=auto;step=5;fillStrokeWidth=0.2;fillStrokeColor=#dddddd;gradientDirection=north;strokeColor=#666666;shadow=0;sketch=0;fillColor=#f5f5f5;gradientColor=#b3b3b3;" vertex="1" parent="RXlQQFgITEn8rvyz34GZ-22">
          <mxGeometry x="90" width="30" height="30" as="geometry" />
        </mxCell>
        <mxCell id="RXlQQFgITEn8rvyz34GZ-54" value="" style="verticalLabelPosition=bottom;verticalAlign=top;html=1;shape=mxgraph.basic.patternFillRect;fillStyle=auto;step=5;fillStrokeWidth=0.2;fillStrokeColor=#dddddd;gradientDirection=north;strokeColor=#666666;shadow=0;sketch=0;fillColor=#f5f5f5;gradientColor=#b3b3b3;" vertex="1" parent="RXlQQFgITEn8rvyz34GZ-22">
          <mxGeometry x="210" width="30" height="30" as="geometry" />
        </mxCell>
        <mxCell id="RXlQQFgITEn8rvyz34GZ-55" value="" style="verticalLabelPosition=bottom;verticalAlign=top;html=1;shape=mxgraph.basic.patternFillRect;fillStyle=auto;step=5;fillStrokeWidth=0.2;fillStrokeColor=#dddddd;gradientDirection=north;strokeColor=#666666;shadow=0;sketch=0;fillColor=#f5f5f5;gradientColor=#b3b3b3;" vertex="1" parent="RXlQQFgITEn8rvyz34GZ-22">
          <mxGeometry x="180" width="30" height="30" as="geometry" />
        </mxCell>
        <mxCell id="RXlQQFgITEn8rvyz34GZ-56" value="" style="verticalLabelPosition=bottom;verticalAlign=top;html=1;shape=mxgraph.basic.patternFillRect;fillStyle=auto;step=5;fillStrokeWidth=0.2;fillStrokeColor=#dddddd;gradientDirection=north;strokeColor=#666666;shadow=0;sketch=0;fillColor=#f5f5f5;gradientColor=#b3b3b3;" vertex="1" parent="RXlQQFgITEn8rvyz34GZ-22">
          <mxGeometry x="150" width="30" height="30" as="geometry" />
        </mxCell>
        <mxCell id="RXlQQFgITEn8rvyz34GZ-57" value="" style="verticalLabelPosition=bottom;verticalAlign=top;html=1;shape=mxgraph.basic.patternFillRect;fillStyle=auto;step=5;fillStrokeWidth=0.2;fillStrokeColor=#dddddd;gradientDirection=north;strokeColor=#666666;shadow=0;sketch=0;fillColor=#f5f5f5;gradientColor=#b3b3b3;" vertex="1" parent="RXlQQFgITEn8rvyz34GZ-22">
          <mxGeometry x="120" width="30" height="30" as="geometry" />
        </mxCell>
        <mxCell id="RXlQQFgITEn8rvyz34GZ-58" value="" style="verticalLabelPosition=bottom;verticalAlign=top;html=1;shape=mxgraph.basic.patternFillRect;fillStyle=auto;step=5;fillStrokeWidth=0.2;fillStrokeColor=#dddddd;gradientDirection=north;strokeColor=#666666;shadow=0;sketch=0;fillColor=#f5f5f5;gradientColor=#b3b3b3;" vertex="1" parent="RXlQQFgITEn8rvyz34GZ-22">
          <mxGeometry x="90" width="30" height="30" as="geometry" />
        </mxCell>
        <mxCell id="RXlQQFgITEn8rvyz34GZ-59" value="" style="verticalLabelPosition=bottom;verticalAlign=top;html=1;shape=mxgraph.basic.patternFillRect;fillStyle=auto;step=5;fillStrokeWidth=0.2;fillStrokeColor=#dddddd;gradientDirection=north;strokeColor=#666666;shadow=0;sketch=0;fillColor=#f5f5f5;gradientColor=#b3b3b3;" vertex="1" parent="RXlQQFgITEn8rvyz34GZ-22">
          <mxGeometry x="210" width="30" height="30" as="geometry" />
        </mxCell>
        <mxCell id="RXlQQFgITEn8rvyz34GZ-60" value="" style="verticalLabelPosition=bottom;verticalAlign=top;html=1;shape=mxgraph.basic.patternFillRect;fillStyle=auto;step=5;fillStrokeWidth=0.2;fillStrokeColor=#dddddd;gradientDirection=north;strokeColor=#666666;shadow=0;sketch=0;fillColor=#f5f5f5;gradientColor=#b3b3b3;" vertex="1" parent="RXlQQFgITEn8rvyz34GZ-22">
          <mxGeometry x="180" width="30" height="30" as="geometry" />
        </mxCell>
        <mxCell id="RXlQQFgITEn8rvyz34GZ-61" value="" style="verticalLabelPosition=bottom;verticalAlign=top;html=1;shape=mxgraph.basic.patternFillRect;fillStyle=auto;step=5;fillStrokeWidth=0.2;fillStrokeColor=#dddddd;gradientDirection=north;strokeColor=#666666;shadow=0;sketch=0;fillColor=#f5f5f5;gradientColor=#b3b3b3;" vertex="1" parent="RXlQQFgITEn8rvyz34GZ-22">
          <mxGeometry x="150" width="30" height="30" as="geometry" />
        </mxCell>
        <mxCell id="RXlQQFgITEn8rvyz34GZ-62" value="" style="verticalLabelPosition=bottom;verticalAlign=top;html=1;shape=mxgraph.basic.patternFillRect;fillStyle=auto;step=5;fillStrokeWidth=0.2;fillStrokeColor=#dddddd;gradientDirection=north;strokeColor=#666666;shadow=0;sketch=0;fillColor=#f5f5f5;gradientColor=#b3b3b3;" vertex="1" parent="RXlQQFgITEn8rvyz34GZ-22">
          <mxGeometry x="120" width="30" height="30" as="geometry" />
        </mxCell>
        <mxCell id="RXlQQFgITEn8rvyz34GZ-63" value="" style="verticalLabelPosition=bottom;verticalAlign=top;html=1;shape=mxgraph.basic.patternFillRect;fillStyle=auto;step=5;fillStrokeWidth=0.2;fillStrokeColor=#dddddd;gradientDirection=north;strokeColor=#666666;shadow=0;sketch=0;fillColor=#f5f5f5;gradientColor=#b3b3b3;" vertex="1" parent="RXlQQFgITEn8rvyz34GZ-22">
          <mxGeometry x="90" width="30" height="30" as="geometry" />
        </mxCell>
        <mxCell id="RXlQQFgITEn8rvyz34GZ-64" value="" style="verticalLabelPosition=bottom;verticalAlign=top;html=1;shape=mxgraph.basic.patternFillRect;fillStyle=auto;step=5;fillStrokeWidth=0.2;fillStrokeColor=#dddddd;gradientDirection=north;strokeColor=#666666;shadow=0;sketch=0;fillColor=#f5f5f5;gradientColor=#b3b3b3;" vertex="1" parent="RXlQQFgITEn8rvyz34GZ-22">
          <mxGeometry x="60" width="30" height="30" as="geometry" />
        </mxCell>
        <mxCell id="RXlQQFgITEn8rvyz34GZ-65" value="" style="verticalLabelPosition=bottom;verticalAlign=top;html=1;shape=mxgraph.basic.patternFillRect;fillStyle=auto;step=5;fillStrokeWidth=0.2;fillStrokeColor=#dddddd;gradientDirection=north;strokeColor=#666666;shadow=0;sketch=0;fillColor=#f5f5f5;gradientColor=#000000;" vertex="1" parent="RXlQQFgITEn8rvyz34GZ-22">
          <mxGeometry x="210" width="30" height="30" as="geometry" />
        </mxCell>
        <mxCell id="RXlQQFgITEn8rvyz34GZ-66" value="" style="verticalLabelPosition=bottom;verticalAlign=top;html=1;shape=mxgraph.basic.patternFillRect;fillStyle=auto;step=5;fillStrokeWidth=0.2;fillStrokeColor=#dddddd;gradientDirection=north;strokeColor=#666666;shadow=0;sketch=0;fillColor=#f5f5f5;gradientColor=#000000;" vertex="1" parent="RXlQQFgITEn8rvyz34GZ-22">
          <mxGeometry x="180" width="30" height="30" as="geometry" />
        </mxCell>
        <mxCell id="RXlQQFgITEn8rvyz34GZ-67" value="" style="verticalLabelPosition=bottom;verticalAlign=top;html=1;shape=mxgraph.basic.patternFillRect;fillStyle=auto;step=5;fillStrokeWidth=0.2;fillStrokeColor=#dddddd;gradientDirection=north;strokeColor=#666666;shadow=0;sketch=0;fillColor=#f5f5f5;gradientColor=#000000;" vertex="1" parent="RXlQQFgITEn8rvyz34GZ-22">
          <mxGeometry x="150" width="30" height="30" as="geometry" />
        </mxCell>
        <mxCell id="RXlQQFgITEn8rvyz34GZ-68" value="" style="verticalLabelPosition=bottom;verticalAlign=top;html=1;shape=mxgraph.basic.patternFillRect;fillStyle=auto;step=5;fillStrokeWidth=0.2;fillStrokeColor=#dddddd;gradientDirection=north;strokeColor=#666666;shadow=0;sketch=0;fillColor=#f5f5f5;gradientColor=#000000;" vertex="1" parent="RXlQQFgITEn8rvyz34GZ-22">
          <mxGeometry x="120" width="30" height="30" as="geometry" />
        </mxCell>
        <mxCell id="RXlQQFgITEn8rvyz34GZ-69" value="" style="verticalLabelPosition=bottom;verticalAlign=top;html=1;shape=mxgraph.basic.patternFillRect;fillStyle=auto;step=5;fillStrokeWidth=0.2;fillStrokeColor=#dddddd;gradientDirection=north;strokeColor=#666666;shadow=0;sketch=0;fillColor=#f5f5f5;gradientColor=#000000;" vertex="1" parent="RXlQQFgITEn8rvyz34GZ-22">
          <mxGeometry x="90" width="30" height="30" as="geometry" />
        </mxCell>
        <mxCell id="RXlQQFgITEn8rvyz34GZ-70" value="" style="verticalLabelPosition=bottom;verticalAlign=top;html=1;shape=mxgraph.basic.patternFillRect;fillStyle=auto;step=5;fillStrokeWidth=0.2;fillStrokeColor=#dddddd;gradientDirection=north;strokeColor=#666666;shadow=0;sketch=0;fillColor=#f5f5f5;gradientColor=#000000;" vertex="1" parent="RXlQQFgITEn8rvyz34GZ-22">
          <mxGeometry x="60" width="30" height="30" as="geometry" />
        </mxCell>
        <mxCell id="RXlQQFgITEn8rvyz34GZ-71" value="" style="group;fillColor=#f5f5f5;gradientColor=#b3b3b3;strokeColor=#666666;" vertex="1" connectable="0" parent="1">
          <mxGeometry x="795" y="1991.5" width="240" height="30" as="geometry" />
        </mxCell>
        <mxCell id="RXlQQFgITEn8rvyz34GZ-72" value="" style="verticalLabelPosition=bottom;verticalAlign=top;html=1;shape=mxgraph.basic.patternFillRect;fillStyle=auto;step=5;fillStrokeWidth=0.2;fillStrokeColor=#dddddd;gradientDirection=north;strokeColor=#666666;shadow=0;sketch=0;fillColor=#f5f5f5;gradientColor=#5C5C5C;" vertex="1" parent="RXlQQFgITEn8rvyz34GZ-71">
          <mxGeometry width="30" height="30" as="geometry" />
        </mxCell>
        <mxCell id="RXlQQFgITEn8rvyz34GZ-73" value="" style="verticalLabelPosition=bottom;verticalAlign=top;html=1;shape=mxgraph.basic.patternFillRect;fillStyle=auto;step=5;fillStrokeWidth=0.2;fillStrokeColor=#dddddd;gradientDirection=north;strokeColor=#666666;shadow=0;sketch=0;fillColor=#f5f5f5;gradientColor=#b3b3b3;" vertex="1" parent="RXlQQFgITEn8rvyz34GZ-71">
          <mxGeometry x="120" width="30" height="30" as="geometry" />
        </mxCell>
        <mxCell id="RXlQQFgITEn8rvyz34GZ-74" value="" style="verticalLabelPosition=bottom;verticalAlign=top;html=1;shape=mxgraph.basic.patternFillRect;fillStyle=auto;step=5;fillStrokeWidth=0.2;fillStrokeColor=#dddddd;gradientDirection=north;strokeColor=#666666;shadow=0;sketch=0;fillColor=#f5f5f5;gradientColor=#5C5C5C;" vertex="1" parent="RXlQQFgITEn8rvyz34GZ-71">
          <mxGeometry x="30" width="30" height="30" as="geometry" />
        </mxCell>
        <mxCell id="RXlQQFgITEn8rvyz34GZ-75" value="" style="verticalLabelPosition=bottom;verticalAlign=top;html=1;shape=mxgraph.basic.patternFillRect;fillStyle=auto;step=5;fillStrokeWidth=0.2;fillStrokeColor=#dddddd;gradientDirection=north;strokeColor=#666666;shadow=0;sketch=0;fillColor=#f5f5f5;gradientColor=#b3b3b3;" vertex="1" parent="RXlQQFgITEn8rvyz34GZ-71">
          <mxGeometry x="150" width="30" height="30" as="geometry" />
        </mxCell>
        <mxCell id="RXlQQFgITEn8rvyz34GZ-76" value="" style="verticalLabelPosition=bottom;verticalAlign=top;html=1;shape=mxgraph.basic.patternFillRect;fillStyle=auto;step=5;fillStrokeWidth=0.2;fillStrokeColor=#dddddd;gradientDirection=north;strokeColor=#666666;shadow=0;sketch=0;fillColor=#f5f5f5;gradientColor=#b3b3b3;" vertex="1" parent="RXlQQFgITEn8rvyz34GZ-71">
          <mxGeometry x="60" width="30" height="30" as="geometry" />
        </mxCell>
        <mxCell id="RXlQQFgITEn8rvyz34GZ-77" value="" style="verticalLabelPosition=bottom;verticalAlign=top;html=1;shape=mxgraph.basic.patternFillRect;fillStyle=auto;step=5;fillStrokeWidth=0.2;fillStrokeColor=#dddddd;gradientDirection=north;strokeColor=#666666;shadow=0;sketch=0;fillColor=#f5f5f5;gradientColor=#b3b3b3;" vertex="1" parent="RXlQQFgITEn8rvyz34GZ-71">
          <mxGeometry x="180" width="30" height="30" as="geometry" />
        </mxCell>
        <mxCell id="RXlQQFgITEn8rvyz34GZ-78" value="" style="verticalLabelPosition=bottom;verticalAlign=top;html=1;shape=mxgraph.basic.patternFillRect;fillStyle=auto;step=5;fillStrokeWidth=0.2;fillStrokeColor=#dddddd;gradientDirection=north;strokeColor=#666666;shadow=0;sketch=0;fillColor=#f5f5f5;gradientColor=#b3b3b3;" vertex="1" parent="RXlQQFgITEn8rvyz34GZ-71">
          <mxGeometry x="90" width="30" height="30" as="geometry" />
        </mxCell>
        <mxCell id="RXlQQFgITEn8rvyz34GZ-79" value="" style="verticalLabelPosition=bottom;verticalAlign=top;html=1;shape=mxgraph.basic.patternFillRect;fillStyle=auto;step=5;fillStrokeWidth=0.2;fillStrokeColor=#dddddd;gradientDirection=north;strokeColor=#666666;shadow=0;sketch=0;fillColor=#f5f5f5;gradientColor=#b3b3b3;" vertex="1" parent="RXlQQFgITEn8rvyz34GZ-71">
          <mxGeometry x="210" width="30" height="30" as="geometry" />
        </mxCell>
        <mxCell id="RXlQQFgITEn8rvyz34GZ-80" value="" style="verticalLabelPosition=bottom;verticalAlign=top;html=1;shape=mxgraph.basic.patternFillRect;fillStyle=auto;step=5;fillStrokeWidth=0.2;fillStrokeColor=#dddddd;gradientDirection=north;strokeColor=#666666;shadow=0;sketch=0;fillColor=#f5f5f5;gradientColor=#b3b3b3;" vertex="1" parent="RXlQQFgITEn8rvyz34GZ-71">
          <mxGeometry x="210" width="30" height="30" as="geometry" />
        </mxCell>
        <mxCell id="RXlQQFgITEn8rvyz34GZ-81" value="" style="verticalLabelPosition=bottom;verticalAlign=top;html=1;shape=mxgraph.basic.patternFillRect;fillStyle=auto;step=5;fillStrokeWidth=0.2;fillStrokeColor=#dddddd;gradientDirection=north;strokeColor=#666666;shadow=0;sketch=0;fillColor=#f5f5f5;gradientColor=#b3b3b3;" vertex="1" parent="RXlQQFgITEn8rvyz34GZ-71">
          <mxGeometry x="180" width="30" height="30" as="geometry" />
        </mxCell>
        <mxCell id="RXlQQFgITEn8rvyz34GZ-82" value="" style="verticalLabelPosition=bottom;verticalAlign=top;html=1;shape=mxgraph.basic.patternFillRect;fillStyle=auto;step=5;fillStrokeWidth=0.2;fillStrokeColor=#dddddd;gradientDirection=north;strokeColor=#666666;shadow=0;sketch=0;fillColor=#f5f5f5;gradientColor=#b3b3b3;" vertex="1" parent="RXlQQFgITEn8rvyz34GZ-71">
          <mxGeometry x="210" width="30" height="30" as="geometry" />
        </mxCell>
        <mxCell id="RXlQQFgITEn8rvyz34GZ-83" value="" style="verticalLabelPosition=bottom;verticalAlign=top;html=1;shape=mxgraph.basic.patternFillRect;fillStyle=auto;step=5;fillStrokeWidth=0.2;fillStrokeColor=#dddddd;gradientDirection=north;strokeColor=#666666;shadow=0;sketch=0;fillColor=#f5f5f5;gradientColor=#b3b3b3;" vertex="1" parent="RXlQQFgITEn8rvyz34GZ-71">
          <mxGeometry x="180" width="30" height="30" as="geometry" />
        </mxCell>
        <mxCell id="RXlQQFgITEn8rvyz34GZ-84" value="" style="verticalLabelPosition=bottom;verticalAlign=top;html=1;shape=mxgraph.basic.patternFillRect;fillStyle=auto;step=5;fillStrokeWidth=0.2;fillStrokeColor=#dddddd;gradientDirection=north;strokeColor=#666666;shadow=0;sketch=0;fillColor=#f5f5f5;gradientColor=#b3b3b3;" vertex="1" parent="RXlQQFgITEn8rvyz34GZ-71">
          <mxGeometry x="150" width="30" height="30" as="geometry" />
        </mxCell>
        <mxCell id="RXlQQFgITEn8rvyz34GZ-85" value="" style="verticalLabelPosition=bottom;verticalAlign=top;html=1;shape=mxgraph.basic.patternFillRect;fillStyle=auto;step=5;fillStrokeWidth=0.2;fillStrokeColor=#dddddd;gradientDirection=north;strokeColor=#666666;shadow=0;sketch=0;fillColor=#f5f5f5;gradientColor=#b3b3b3;" vertex="1" parent="RXlQQFgITEn8rvyz34GZ-71">
          <mxGeometry x="210" width="30" height="30" as="geometry" />
        </mxCell>
        <mxCell id="RXlQQFgITEn8rvyz34GZ-86" value="" style="verticalLabelPosition=bottom;verticalAlign=top;html=1;shape=mxgraph.basic.patternFillRect;fillStyle=auto;step=5;fillStrokeWidth=0.2;fillStrokeColor=#dddddd;gradientDirection=north;strokeColor=#666666;shadow=0;sketch=0;fillColor=#f5f5f5;gradientColor=#b3b3b3;" vertex="1" parent="RXlQQFgITEn8rvyz34GZ-71">
          <mxGeometry x="180" width="30" height="30" as="geometry" />
        </mxCell>
        <mxCell id="RXlQQFgITEn8rvyz34GZ-87" value="" style="verticalLabelPosition=bottom;verticalAlign=top;html=1;shape=mxgraph.basic.patternFillRect;fillStyle=auto;step=5;fillStrokeWidth=0.2;fillStrokeColor=#dddddd;gradientDirection=north;strokeColor=#666666;shadow=0;sketch=0;fillColor=#f5f5f5;gradientColor=#b3b3b3;" vertex="1" parent="RXlQQFgITEn8rvyz34GZ-71">
          <mxGeometry x="150" width="30" height="30" as="geometry" />
        </mxCell>
        <mxCell id="RXlQQFgITEn8rvyz34GZ-88" value="" style="verticalLabelPosition=bottom;verticalAlign=top;html=1;shape=mxgraph.basic.patternFillRect;fillStyle=auto;step=5;fillStrokeWidth=0.2;fillStrokeColor=#dddddd;gradientDirection=north;strokeColor=#666666;shadow=0;sketch=0;fillColor=#f5f5f5;gradientColor=#b3b3b3;" vertex="1" parent="RXlQQFgITEn8rvyz34GZ-71">
          <mxGeometry x="210" width="30" height="30" as="geometry" />
        </mxCell>
        <mxCell id="RXlQQFgITEn8rvyz34GZ-89" value="" style="verticalLabelPosition=bottom;verticalAlign=top;html=1;shape=mxgraph.basic.patternFillRect;fillStyle=auto;step=5;fillStrokeWidth=0.2;fillStrokeColor=#dddddd;gradientDirection=north;strokeColor=#666666;shadow=0;sketch=0;fillColor=#f5f5f5;gradientColor=#b3b3b3;" vertex="1" parent="RXlQQFgITEn8rvyz34GZ-71">
          <mxGeometry x="180" width="30" height="30" as="geometry" />
        </mxCell>
        <mxCell id="RXlQQFgITEn8rvyz34GZ-90" value="" style="verticalLabelPosition=bottom;verticalAlign=top;html=1;shape=mxgraph.basic.patternFillRect;fillStyle=auto;step=5;fillStrokeWidth=0.2;fillStrokeColor=#dddddd;gradientDirection=north;strokeColor=#666666;shadow=0;sketch=0;fillColor=#f5f5f5;gradientColor=#b3b3b3;" vertex="1" parent="RXlQQFgITEn8rvyz34GZ-71">
          <mxGeometry x="150" width="30" height="30" as="geometry" />
        </mxCell>
        <mxCell id="RXlQQFgITEn8rvyz34GZ-91" value="" style="verticalLabelPosition=bottom;verticalAlign=top;html=1;shape=mxgraph.basic.patternFillRect;fillStyle=auto;step=5;fillStrokeWidth=0.2;fillStrokeColor=#dddddd;gradientDirection=north;strokeColor=#666666;shadow=0;sketch=0;fillColor=#f5f5f5;gradientColor=#b3b3b3;" vertex="1" parent="RXlQQFgITEn8rvyz34GZ-71">
          <mxGeometry x="120" width="30" height="30" as="geometry" />
        </mxCell>
        <mxCell id="RXlQQFgITEn8rvyz34GZ-92" value="" style="verticalLabelPosition=bottom;verticalAlign=top;html=1;shape=mxgraph.basic.patternFillRect;fillStyle=auto;step=5;fillStrokeWidth=0.2;fillStrokeColor=#dddddd;gradientDirection=north;strokeColor=#666666;shadow=0;sketch=0;fillColor=#f5f5f5;gradientColor=#b3b3b3;" vertex="1" parent="RXlQQFgITEn8rvyz34GZ-71">
          <mxGeometry x="90" width="30" height="30" as="geometry" />
        </mxCell>
        <mxCell id="RXlQQFgITEn8rvyz34GZ-93" value="" style="verticalLabelPosition=bottom;verticalAlign=top;html=1;shape=mxgraph.basic.patternFillRect;fillStyle=auto;step=5;fillStrokeWidth=0.2;fillStrokeColor=#dddddd;gradientDirection=north;strokeColor=#666666;shadow=0;sketch=0;fillColor=#f5f5f5;gradientColor=#b3b3b3;" vertex="1" parent="RXlQQFgITEn8rvyz34GZ-71">
          <mxGeometry x="210" width="30" height="30" as="geometry" />
        </mxCell>
        <mxCell id="RXlQQFgITEn8rvyz34GZ-94" value="" style="verticalLabelPosition=bottom;verticalAlign=top;html=1;shape=mxgraph.basic.patternFillRect;fillStyle=auto;step=5;fillStrokeWidth=0.2;fillStrokeColor=#dddddd;gradientDirection=north;strokeColor=#666666;shadow=0;sketch=0;fillColor=#f5f5f5;gradientColor=#b3b3b3;" vertex="1" parent="RXlQQFgITEn8rvyz34GZ-71">
          <mxGeometry x="180" width="30" height="30" as="geometry" />
        </mxCell>
        <mxCell id="RXlQQFgITEn8rvyz34GZ-95" value="" style="verticalLabelPosition=bottom;verticalAlign=top;html=1;shape=mxgraph.basic.patternFillRect;fillStyle=auto;step=5;fillStrokeWidth=0.2;fillStrokeColor=#dddddd;gradientDirection=north;strokeColor=#666666;shadow=0;sketch=0;fillColor=#f5f5f5;gradientColor=#b3b3b3;" vertex="1" parent="RXlQQFgITEn8rvyz34GZ-71">
          <mxGeometry x="150" width="30" height="30" as="geometry" />
        </mxCell>
        <mxCell id="RXlQQFgITEn8rvyz34GZ-96" value="" style="verticalLabelPosition=bottom;verticalAlign=top;html=1;shape=mxgraph.basic.patternFillRect;fillStyle=auto;step=5;fillStrokeWidth=0.2;fillStrokeColor=#dddddd;gradientDirection=north;strokeColor=#666666;shadow=0;sketch=0;fillColor=#f5f5f5;gradientColor=#b3b3b3;" vertex="1" parent="RXlQQFgITEn8rvyz34GZ-71">
          <mxGeometry x="120" width="30" height="30" as="geometry" />
        </mxCell>
        <mxCell id="RXlQQFgITEn8rvyz34GZ-97" value="" style="verticalLabelPosition=bottom;verticalAlign=top;html=1;shape=mxgraph.basic.patternFillRect;fillStyle=auto;step=5;fillStrokeWidth=0.2;fillStrokeColor=#dddddd;gradientDirection=north;strokeColor=#666666;shadow=0;sketch=0;fillColor=#f5f5f5;gradientColor=#b3b3b3;" vertex="1" parent="RXlQQFgITEn8rvyz34GZ-71">
          <mxGeometry x="90" width="30" height="30" as="geometry" />
        </mxCell>
        <mxCell id="RXlQQFgITEn8rvyz34GZ-98" value="" style="verticalLabelPosition=bottom;verticalAlign=top;html=1;shape=mxgraph.basic.patternFillRect;fillStyle=auto;step=5;fillStrokeWidth=0.2;fillStrokeColor=#dddddd;gradientDirection=north;strokeColor=#666666;shadow=0;sketch=0;fillColor=#f5f5f5;gradientColor=#b3b3b3;" vertex="1" parent="RXlQQFgITEn8rvyz34GZ-71">
          <mxGeometry x="210" width="30" height="30" as="geometry" />
        </mxCell>
        <mxCell id="RXlQQFgITEn8rvyz34GZ-99" value="" style="verticalLabelPosition=bottom;verticalAlign=top;html=1;shape=mxgraph.basic.patternFillRect;fillStyle=auto;step=5;fillStrokeWidth=0.2;fillStrokeColor=#dddddd;gradientDirection=north;strokeColor=#666666;shadow=0;sketch=0;fillColor=#f5f5f5;gradientColor=#b3b3b3;" vertex="1" parent="RXlQQFgITEn8rvyz34GZ-71">
          <mxGeometry x="180" width="30" height="30" as="geometry" />
        </mxCell>
        <mxCell id="RXlQQFgITEn8rvyz34GZ-100" value="" style="verticalLabelPosition=bottom;verticalAlign=top;html=1;shape=mxgraph.basic.patternFillRect;fillStyle=auto;step=5;fillStrokeWidth=0.2;fillStrokeColor=#dddddd;gradientDirection=north;strokeColor=#666666;shadow=0;sketch=0;fillColor=#f5f5f5;gradientColor=#b3b3b3;" vertex="1" parent="RXlQQFgITEn8rvyz34GZ-71">
          <mxGeometry x="150" width="30" height="30" as="geometry" />
        </mxCell>
        <mxCell id="RXlQQFgITEn8rvyz34GZ-101" value="" style="verticalLabelPosition=bottom;verticalAlign=top;html=1;shape=mxgraph.basic.patternFillRect;fillStyle=auto;step=5;fillStrokeWidth=0.2;fillStrokeColor=#dddddd;gradientDirection=north;strokeColor=#666666;shadow=0;sketch=0;fillColor=#f5f5f5;gradientColor=#b3b3b3;" vertex="1" parent="RXlQQFgITEn8rvyz34GZ-71">
          <mxGeometry x="120" width="30" height="30" as="geometry" />
        </mxCell>
        <mxCell id="RXlQQFgITEn8rvyz34GZ-102" value="" style="verticalLabelPosition=bottom;verticalAlign=top;html=1;shape=mxgraph.basic.patternFillRect;fillStyle=auto;step=5;fillStrokeWidth=0.2;fillStrokeColor=#dddddd;gradientDirection=north;strokeColor=#666666;shadow=0;sketch=0;fillColor=#f5f5f5;gradientColor=#b3b3b3;" vertex="1" parent="RXlQQFgITEn8rvyz34GZ-71">
          <mxGeometry x="90" width="30" height="30" as="geometry" />
        </mxCell>
        <mxCell id="RXlQQFgITEn8rvyz34GZ-103" value="" style="verticalLabelPosition=bottom;verticalAlign=top;html=1;shape=mxgraph.basic.patternFillRect;fillStyle=auto;step=5;fillStrokeWidth=0.2;fillStrokeColor=#dddddd;gradientDirection=north;strokeColor=#666666;shadow=0;sketch=0;fillColor=#f5f5f5;gradientColor=#b3b3b3;" vertex="1" parent="RXlQQFgITEn8rvyz34GZ-71">
          <mxGeometry x="210" width="30" height="30" as="geometry" />
        </mxCell>
        <mxCell id="RXlQQFgITEn8rvyz34GZ-104" value="" style="verticalLabelPosition=bottom;verticalAlign=top;html=1;shape=mxgraph.basic.patternFillRect;fillStyle=auto;step=5;fillStrokeWidth=0.2;fillStrokeColor=#dddddd;gradientDirection=north;strokeColor=#666666;shadow=0;sketch=0;fillColor=#f5f5f5;gradientColor=#b3b3b3;" vertex="1" parent="RXlQQFgITEn8rvyz34GZ-71">
          <mxGeometry x="180" width="30" height="30" as="geometry" />
        </mxCell>
        <mxCell id="RXlQQFgITEn8rvyz34GZ-105" value="" style="verticalLabelPosition=bottom;verticalAlign=top;html=1;shape=mxgraph.basic.patternFillRect;fillStyle=auto;step=5;fillStrokeWidth=0.2;fillStrokeColor=#dddddd;gradientDirection=north;strokeColor=#666666;shadow=0;sketch=0;fillColor=#f5f5f5;gradientColor=#b3b3b3;" vertex="1" parent="RXlQQFgITEn8rvyz34GZ-71">
          <mxGeometry x="150" width="30" height="30" as="geometry" />
        </mxCell>
        <mxCell id="RXlQQFgITEn8rvyz34GZ-106" value="" style="verticalLabelPosition=bottom;verticalAlign=top;html=1;shape=mxgraph.basic.patternFillRect;fillStyle=auto;step=5;fillStrokeWidth=0.2;fillStrokeColor=#dddddd;gradientDirection=north;strokeColor=#666666;shadow=0;sketch=0;fillColor=#f5f5f5;gradientColor=#b3b3b3;" vertex="1" parent="RXlQQFgITEn8rvyz34GZ-71">
          <mxGeometry x="120" width="30" height="30" as="geometry" />
        </mxCell>
        <mxCell id="RXlQQFgITEn8rvyz34GZ-107" value="" style="verticalLabelPosition=bottom;verticalAlign=top;html=1;shape=mxgraph.basic.patternFillRect;fillStyle=auto;step=5;fillStrokeWidth=0.2;fillStrokeColor=#dddddd;gradientDirection=north;strokeColor=#666666;shadow=0;sketch=0;fillColor=#f5f5f5;gradientColor=#b3b3b3;" vertex="1" parent="RXlQQFgITEn8rvyz34GZ-71">
          <mxGeometry x="90" width="30" height="30" as="geometry" />
        </mxCell>
        <mxCell id="RXlQQFgITEn8rvyz34GZ-108" value="" style="verticalLabelPosition=bottom;verticalAlign=top;html=1;shape=mxgraph.basic.patternFillRect;fillStyle=auto;step=5;fillStrokeWidth=0.2;fillStrokeColor=#dddddd;gradientDirection=north;strokeColor=#666666;shadow=0;sketch=0;fillColor=#f5f5f5;gradientColor=#b3b3b3;" vertex="1" parent="RXlQQFgITEn8rvyz34GZ-71">
          <mxGeometry x="210" width="30" height="30" as="geometry" />
        </mxCell>
        <mxCell id="RXlQQFgITEn8rvyz34GZ-109" value="" style="verticalLabelPosition=bottom;verticalAlign=top;html=1;shape=mxgraph.basic.patternFillRect;fillStyle=auto;step=5;fillStrokeWidth=0.2;fillStrokeColor=#dddddd;gradientDirection=north;strokeColor=#666666;shadow=0;sketch=0;fillColor=#f5f5f5;gradientColor=#b3b3b3;" vertex="1" parent="RXlQQFgITEn8rvyz34GZ-71">
          <mxGeometry x="180" width="30" height="30" as="geometry" />
        </mxCell>
        <mxCell id="RXlQQFgITEn8rvyz34GZ-110" value="" style="verticalLabelPosition=bottom;verticalAlign=top;html=1;shape=mxgraph.basic.patternFillRect;fillStyle=auto;step=5;fillStrokeWidth=0.2;fillStrokeColor=#dddddd;gradientDirection=north;strokeColor=#666666;shadow=0;sketch=0;fillColor=#f5f5f5;gradientColor=#b3b3b3;" vertex="1" parent="RXlQQFgITEn8rvyz34GZ-71">
          <mxGeometry x="150" width="30" height="30" as="geometry" />
        </mxCell>
        <mxCell id="RXlQQFgITEn8rvyz34GZ-111" value="" style="verticalLabelPosition=bottom;verticalAlign=top;html=1;shape=mxgraph.basic.patternFillRect;fillStyle=auto;step=5;fillStrokeWidth=0.2;fillStrokeColor=#dddddd;gradientDirection=north;strokeColor=#666666;shadow=0;sketch=0;fillColor=#f5f5f5;gradientColor=#b3b3b3;" vertex="1" parent="RXlQQFgITEn8rvyz34GZ-71">
          <mxGeometry x="120" width="30" height="30" as="geometry" />
        </mxCell>
        <mxCell id="RXlQQFgITEn8rvyz34GZ-112" value="" style="verticalLabelPosition=bottom;verticalAlign=top;html=1;shape=mxgraph.basic.patternFillRect;fillStyle=auto;step=5;fillStrokeWidth=0.2;fillStrokeColor=#dddddd;gradientDirection=north;strokeColor=#666666;shadow=0;sketch=0;fillColor=#f5f5f5;gradientColor=#b3b3b3;" vertex="1" parent="RXlQQFgITEn8rvyz34GZ-71">
          <mxGeometry x="90" width="30" height="30" as="geometry" />
        </mxCell>
        <mxCell id="RXlQQFgITEn8rvyz34GZ-113" value="" style="verticalLabelPosition=bottom;verticalAlign=top;html=1;shape=mxgraph.basic.patternFillRect;fillStyle=auto;step=5;fillStrokeWidth=0.2;fillStrokeColor=#dddddd;gradientDirection=north;strokeColor=#666666;shadow=0;sketch=0;fillColor=#f5f5f5;gradientColor=#b3b3b3;" vertex="1" parent="RXlQQFgITEn8rvyz34GZ-71">
          <mxGeometry x="60" width="30" height="30" as="geometry" />
        </mxCell>
        <mxCell id="RXlQQFgITEn8rvyz34GZ-114" value="" style="verticalLabelPosition=bottom;verticalAlign=top;html=1;shape=mxgraph.basic.patternFillRect;fillStyle=auto;step=5;fillStrokeWidth=0.2;fillStrokeColor=#dddddd;gradientDirection=north;strokeColor=#666666;shadow=0;sketch=0;fillColor=#f5f5f5;gradientColor=#000000;" vertex="1" parent="RXlQQFgITEn8rvyz34GZ-71">
          <mxGeometry x="210" width="30" height="30" as="geometry" />
        </mxCell>
        <mxCell id="RXlQQFgITEn8rvyz34GZ-115" value="" style="verticalLabelPosition=bottom;verticalAlign=top;html=1;shape=mxgraph.basic.patternFillRect;fillStyle=auto;step=5;fillStrokeWidth=0.2;fillStrokeColor=#dddddd;gradientDirection=north;strokeColor=#666666;shadow=0;sketch=0;fillColor=#f5f5f5;gradientColor=#000000;" vertex="1" parent="RXlQQFgITEn8rvyz34GZ-71">
          <mxGeometry x="180" width="30" height="30" as="geometry" />
        </mxCell>
        <mxCell id="RXlQQFgITEn8rvyz34GZ-116" value="" style="verticalLabelPosition=bottom;verticalAlign=top;html=1;shape=mxgraph.basic.patternFillRect;fillStyle=auto;step=5;fillStrokeWidth=0.2;fillStrokeColor=#dddddd;gradientDirection=north;strokeColor=#666666;shadow=0;sketch=0;fillColor=#f5f5f5;gradientColor=#000000;" vertex="1" parent="RXlQQFgITEn8rvyz34GZ-71">
          <mxGeometry x="150" width="30" height="30" as="geometry" />
        </mxCell>
        <mxCell id="RXlQQFgITEn8rvyz34GZ-117" value="" style="verticalLabelPosition=bottom;verticalAlign=top;html=1;shape=mxgraph.basic.patternFillRect;fillStyle=auto;step=5;fillStrokeWidth=0.2;fillStrokeColor=#dddddd;gradientDirection=north;strokeColor=#666666;shadow=0;sketch=0;fillColor=#f5f5f5;gradientColor=#000000;" vertex="1" parent="RXlQQFgITEn8rvyz34GZ-71">
          <mxGeometry x="120" width="30" height="30" as="geometry" />
        </mxCell>
        <mxCell id="RXlQQFgITEn8rvyz34GZ-118" value="" style="verticalLabelPosition=bottom;verticalAlign=top;html=1;shape=mxgraph.basic.patternFillRect;fillStyle=auto;step=5;fillStrokeWidth=0.2;fillStrokeColor=#dddddd;gradientDirection=north;strokeColor=#666666;shadow=0;sketch=0;fillColor=#f5f5f5;gradientColor=#000000;" vertex="1" parent="RXlQQFgITEn8rvyz34GZ-71">
          <mxGeometry x="90" width="30" height="30" as="geometry" />
        </mxCell>
        <mxCell id="RXlQQFgITEn8rvyz34GZ-119" value="" style="verticalLabelPosition=bottom;verticalAlign=top;html=1;shape=mxgraph.basic.patternFillRect;fillStyle=auto;step=5;fillStrokeWidth=0.2;fillStrokeColor=#dddddd;gradientDirection=north;strokeColor=#666666;shadow=0;sketch=0;fillColor=#f5f5f5;gradientColor=#000000;" vertex="1" parent="RXlQQFgITEn8rvyz34GZ-71">
          <mxGeometry x="60" width="30" height="30" as="geometry" />
        </mxCell>
        <mxCell id="RXlQQFgITEn8rvyz34GZ-120" value="" style="verticalLabelPosition=bottom;verticalAlign=top;html=1;shape=mxgraph.basic.patternFillRect;fillStyle=auto;step=5;fillStrokeWidth=0.2;fillStrokeColor=#dddddd;gradientDirection=north;strokeColor=#666666;shadow=0;sketch=0;fillColor=#f5f5f5;gradientColor=#000000;" vertex="1" parent="RXlQQFgITEn8rvyz34GZ-71">
          <mxGeometry x="210" width="30" height="30" as="geometry" />
        </mxCell>
        <mxCell id="RXlQQFgITEn8rvyz34GZ-121" value="" style="verticalLabelPosition=bottom;verticalAlign=top;html=1;shape=mxgraph.basic.patternFillRect;fillStyle=auto;step=5;fillStrokeWidth=0.2;fillStrokeColor=#dddddd;gradientDirection=north;strokeColor=#666666;shadow=0;sketch=0;fillColor=#f5f5f5;gradientColor=#000000;" vertex="1" parent="RXlQQFgITEn8rvyz34GZ-71">
          <mxGeometry x="180" width="30" height="30" as="geometry" />
        </mxCell>
        <mxCell id="RXlQQFgITEn8rvyz34GZ-122" value="" style="verticalLabelPosition=bottom;verticalAlign=top;html=1;shape=mxgraph.basic.patternFillRect;fillStyle=auto;step=5;fillStrokeWidth=0.2;fillStrokeColor=#dddddd;gradientDirection=north;strokeColor=#666666;shadow=0;sketch=0;fillColor=#f5f5f5;gradientColor=#000000;" vertex="1" parent="RXlQQFgITEn8rvyz34GZ-71">
          <mxGeometry x="210" width="30" height="30" as="geometry" />
        </mxCell>
        <mxCell id="RXlQQFgITEn8rvyz34GZ-123" value="" style="verticalLabelPosition=bottom;verticalAlign=top;html=1;shape=mxgraph.basic.patternFillRect;fillStyle=auto;step=5;fillStrokeWidth=0.2;fillStrokeColor=#dddddd;gradientDirection=north;strokeColor=#666666;shadow=0;sketch=0;fillColor=#f5f5f5;gradientColor=#000000;" vertex="1" parent="RXlQQFgITEn8rvyz34GZ-71">
          <mxGeometry x="180" width="30" height="30" as="geometry" />
        </mxCell>
        <mxCell id="RXlQQFgITEn8rvyz34GZ-124" value="" style="verticalLabelPosition=bottom;verticalAlign=top;html=1;shape=mxgraph.basic.patternFillRect;fillStyle=auto;step=5;fillStrokeWidth=0.2;fillStrokeColor=#dddddd;gradientDirection=north;strokeColor=#666666;shadow=0;sketch=0;fillColor=#f5f5f5;gradientColor=#000000;" vertex="1" parent="RXlQQFgITEn8rvyz34GZ-71">
          <mxGeometry x="210" width="30" height="30" as="geometry" />
        </mxCell>
        <mxCell id="RXlQQFgITEn8rvyz34GZ-125" value="" style="verticalLabelPosition=bottom;verticalAlign=top;html=1;shape=mxgraph.basic.patternFillRect;fillStyle=auto;step=5;fillStrokeWidth=0.2;fillStrokeColor=#dddddd;gradientDirection=north;strokeColor=#666666;shadow=0;sketch=0;fillColor=#f5f5f5;gradientColor=#000000;" vertex="1" parent="RXlQQFgITEn8rvyz34GZ-71">
          <mxGeometry x="180" width="30" height="30" as="geometry" />
        </mxCell>
        <mxCell id="RXlQQFgITEn8rvyz34GZ-126" value="" style="verticalLabelPosition=bottom;verticalAlign=top;html=1;shape=mxgraph.basic.patternFillRect;fillStyle=auto;step=5;fillStrokeWidth=0.2;fillStrokeColor=#dddddd;gradientDirection=north;strokeColor=#666666;shadow=0;sketch=0;fillColor=#f5f5f5;gradientColor=#000000;" vertex="1" parent="RXlQQFgITEn8rvyz34GZ-71">
          <mxGeometry x="150" width="30" height="30" as="geometry" />
        </mxCell>
        <mxCell id="RXlQQFgITEn8rvyz34GZ-127" value="" style="verticalLabelPosition=bottom;verticalAlign=top;html=1;shape=mxgraph.basic.patternFillRect;fillStyle=auto;step=5;fillStrokeWidth=0.2;fillStrokeColor=#dddddd;gradientDirection=north;strokeColor=#666666;shadow=0;sketch=0;fillColor=#f5f5f5;gradientColor=#000000;" vertex="1" parent="RXlQQFgITEn8rvyz34GZ-71">
          <mxGeometry x="210" width="30" height="30" as="geometry" />
        </mxCell>
        <mxCell id="RXlQQFgITEn8rvyz34GZ-128" value="" style="verticalLabelPosition=bottom;verticalAlign=top;html=1;shape=mxgraph.basic.patternFillRect;fillStyle=auto;step=5;fillStrokeWidth=0.2;fillStrokeColor=#dddddd;gradientDirection=north;strokeColor=#666666;shadow=0;sketch=0;fillColor=#f5f5f5;gradientColor=#000000;" vertex="1" parent="RXlQQFgITEn8rvyz34GZ-71">
          <mxGeometry x="180" width="30" height="30" as="geometry" />
        </mxCell>
        <mxCell id="RXlQQFgITEn8rvyz34GZ-129" value="" style="verticalLabelPosition=bottom;verticalAlign=top;html=1;shape=mxgraph.basic.patternFillRect;fillStyle=auto;step=5;fillStrokeWidth=0.2;fillStrokeColor=#dddddd;gradientDirection=north;strokeColor=#666666;shadow=0;sketch=0;fillColor=#f5f5f5;gradientColor=#000000;" vertex="1" parent="RXlQQFgITEn8rvyz34GZ-71">
          <mxGeometry x="150" width="30" height="30" as="geometry" />
        </mxCell>
        <mxCell id="RXlQQFgITEn8rvyz34GZ-130" value="" style="verticalLabelPosition=bottom;verticalAlign=top;html=1;shape=mxgraph.basic.patternFillRect;fillStyle=auto;step=5;fillStrokeWidth=0.2;fillStrokeColor=#dddddd;gradientDirection=north;strokeColor=#666666;shadow=0;sketch=0;fillColor=#f5f5f5;gradientColor=#000000;" vertex="1" parent="RXlQQFgITEn8rvyz34GZ-71">
          <mxGeometry x="120" width="30" height="30" as="geometry" />
        </mxCell>
        <mxCell id="RXlQQFgITEn8rvyz34GZ-131" value="" style="verticalLabelPosition=bottom;verticalAlign=top;html=1;shape=mxgraph.basic.patternFillRect;fillStyle=auto;step=5;fillStrokeWidth=0.2;fillStrokeColor=#dddddd;gradientDirection=north;strokeColor=#666666;shadow=0;sketch=0;fillColor=#f5f5f5;gradientColor=#5C5C5C;" vertex="1" parent="RXlQQFgITEn8rvyz34GZ-71">
          <mxGeometry x="210" width="30" height="30" as="geometry" />
        </mxCell>
        <mxCell id="RXlQQFgITEn8rvyz34GZ-132" value="" style="verticalLabelPosition=bottom;verticalAlign=top;html=1;shape=mxgraph.basic.patternFillRect;fillStyle=auto;step=5;fillStrokeWidth=0.2;fillStrokeColor=#dddddd;gradientDirection=north;strokeColor=#666666;shadow=0;sketch=0;fillColor=#f5f5f5;gradientColor=#5C5C5C;" vertex="1" parent="RXlQQFgITEn8rvyz34GZ-71">
          <mxGeometry x="180" width="30" height="30" as="geometry" />
        </mxCell>
        <mxCell id="RXlQQFgITEn8rvyz34GZ-133" value="" style="verticalLabelPosition=bottom;verticalAlign=top;html=1;shape=mxgraph.basic.patternFillRect;fillStyle=auto;step=5;fillStrokeWidth=0.2;fillStrokeColor=#dddddd;gradientDirection=north;strokeColor=#666666;shadow=0;sketch=0;fillColor=#f5f5f5;gradientColor=#5C5C5C;" vertex="1" parent="RXlQQFgITEn8rvyz34GZ-71">
          <mxGeometry x="150" width="30" height="30" as="geometry" />
        </mxCell>
        <mxCell id="RXlQQFgITEn8rvyz34GZ-134" value="" style="verticalLabelPosition=bottom;verticalAlign=top;html=1;shape=mxgraph.basic.patternFillRect;fillStyle=auto;step=5;fillStrokeWidth=0.2;fillStrokeColor=#dddddd;gradientDirection=north;strokeColor=#666666;shadow=0;sketch=0;fillColor=#f5f5f5;gradientColor=#5C5C5C;" vertex="1" parent="RXlQQFgITEn8rvyz34GZ-71">
          <mxGeometry x="120" width="30" height="30" as="geometry" />
        </mxCell>
        <mxCell id="RXlQQFgITEn8rvyz34GZ-135" value="" style="verticalLabelPosition=bottom;verticalAlign=top;html=1;shape=mxgraph.basic.patternFillRect;fillStyle=auto;step=5;fillStrokeWidth=0.2;fillStrokeColor=#dddddd;gradientDirection=north;strokeColor=#666666;shadow=0;sketch=0;fillColor=#f5f5f5;gradientColor=#5C5C5C;" vertex="1" parent="RXlQQFgITEn8rvyz34GZ-71">
          <mxGeometry x="60" width="30" height="30" as="geometry" />
        </mxCell>
        <mxCell id="RXlQQFgITEn8rvyz34GZ-136" value="" style="verticalLabelPosition=bottom;verticalAlign=top;html=1;shape=mxgraph.basic.patternFillRect;fillStyle=auto;step=5;fillStrokeWidth=0.2;fillStrokeColor=#dddddd;gradientDirection=north;strokeColor=#666666;shadow=0;sketch=0;fillColor=#f5f5f5;gradientColor=#5C5C5C;" vertex="1" parent="RXlQQFgITEn8rvyz34GZ-71">
          <mxGeometry x="90" width="30" height="30" as="geometry" />
        </mxCell>
        <mxCell id="RXlQQFgITEn8rvyz34GZ-137" value="" style="group;fillColor=#f5f5f5;gradientColor=#b3b3b3;strokeColor=#666666;" vertex="1" connectable="0" parent="1">
          <mxGeometry x="809" y="2010.5" width="240" height="39.5" as="geometry" />
        </mxCell>
        <mxCell id="RXlQQFgITEn8rvyz34GZ-138" value="" style="group;fillColor=#000000;gradientColor=#919191;strokeColor=#666666;" vertex="1" connectable="0" parent="RXlQQFgITEn8rvyz34GZ-137">
          <mxGeometry x="-8" y="-10" width="240" height="30" as="geometry" />
        </mxCell>
        <mxCell id="RXlQQFgITEn8rvyz34GZ-139" value="" style="verticalLabelPosition=bottom;verticalAlign=top;html=1;shape=mxgraph.basic.patternFillRect;fillStyle=auto;step=5;fillStrokeWidth=0.2;fillStrokeColor=#dddddd;gradientDirection=north;strokeColor=#666666;shadow=0;sketch=0;fillColor=#f5f5f5;gradientColor=#b3b3b3;" vertex="1" parent="RXlQQFgITEn8rvyz34GZ-138">
          <mxGeometry width="30" height="30" as="geometry" />
        </mxCell>
        <mxCell id="RXlQQFgITEn8rvyz34GZ-140" value="" style="verticalLabelPosition=bottom;verticalAlign=top;html=1;shape=mxgraph.basic.patternFillRect;fillStyle=auto;step=5;fillStrokeWidth=0.2;fillStrokeColor=#dddddd;gradientDirection=north;strokeColor=#666666;shadow=0;sketch=0;fillColor=#f5f5f5;gradientColor=#b3b3b3;" vertex="1" parent="RXlQQFgITEn8rvyz34GZ-138">
          <mxGeometry x="120" width="30" height="30" as="geometry" />
        </mxCell>
        <mxCell id="RXlQQFgITEn8rvyz34GZ-141" value="" style="verticalLabelPosition=bottom;verticalAlign=top;html=1;shape=mxgraph.basic.patternFillRect;fillStyle=auto;step=5;fillStrokeWidth=0.2;fillStrokeColor=#dddddd;gradientDirection=north;strokeColor=#666666;shadow=0;sketch=0;fillColor=#f5f5f5;gradientColor=#b3b3b3;" vertex="1" parent="RXlQQFgITEn8rvyz34GZ-138">
          <mxGeometry x="30" width="30" height="30" as="geometry" />
        </mxCell>
        <mxCell id="RXlQQFgITEn8rvyz34GZ-142" value="" style="verticalLabelPosition=bottom;verticalAlign=top;html=1;shape=mxgraph.basic.patternFillRect;fillStyle=auto;step=5;fillStrokeWidth=0.2;fillStrokeColor=#dddddd;gradientDirection=north;strokeColor=#666666;shadow=0;sketch=0;fillColor=#f5f5f5;gradientColor=#b3b3b3;" vertex="1" parent="RXlQQFgITEn8rvyz34GZ-138">
          <mxGeometry x="150" width="30" height="30" as="geometry" />
        </mxCell>
        <mxCell id="RXlQQFgITEn8rvyz34GZ-143" value="" style="verticalLabelPosition=bottom;verticalAlign=top;html=1;shape=mxgraph.basic.patternFillRect;fillStyle=auto;step=5;fillStrokeWidth=0.2;fillStrokeColor=#dddddd;gradientDirection=north;strokeColor=#666666;shadow=0;sketch=0;fillColor=#f5f5f5;gradientColor=#b3b3b3;" vertex="1" parent="RXlQQFgITEn8rvyz34GZ-138">
          <mxGeometry x="60" width="30" height="30" as="geometry" />
        </mxCell>
        <mxCell id="RXlQQFgITEn8rvyz34GZ-144" value="" style="verticalLabelPosition=bottom;verticalAlign=top;html=1;shape=mxgraph.basic.patternFillRect;fillStyle=auto;step=5;fillStrokeWidth=0.2;fillStrokeColor=#dddddd;gradientDirection=north;strokeColor=#666666;shadow=0;sketch=0;fillColor=#f5f5f5;gradientColor=#b3b3b3;" vertex="1" parent="RXlQQFgITEn8rvyz34GZ-138">
          <mxGeometry x="180" width="30" height="30" as="geometry" />
        </mxCell>
        <mxCell id="RXlQQFgITEn8rvyz34GZ-145" value="" style="verticalLabelPosition=bottom;verticalAlign=top;html=1;shape=mxgraph.basic.patternFillRect;fillStyle=auto;step=5;fillStrokeWidth=0.2;fillStrokeColor=#dddddd;gradientDirection=north;strokeColor=#666666;shadow=0;sketch=0;fillColor=#f5f5f5;gradientColor=#b3b3b3;" vertex="1" parent="RXlQQFgITEn8rvyz34GZ-138">
          <mxGeometry x="90" width="30" height="30" as="geometry" />
        </mxCell>
        <mxCell id="RXlQQFgITEn8rvyz34GZ-146" value="" style="verticalLabelPosition=bottom;verticalAlign=top;html=1;shape=mxgraph.basic.patternFillRect;fillStyle=auto;step=5;fillStrokeWidth=0.2;fillStrokeColor=#dddddd;gradientDirection=north;strokeColor=#666666;shadow=0;sketch=0;fillColor=#f5f5f5;gradientColor=#b3b3b3;" vertex="1" parent="RXlQQFgITEn8rvyz34GZ-138">
          <mxGeometry x="210" width="30" height="30" as="geometry" />
        </mxCell>
        <mxCell id="RXlQQFgITEn8rvyz34GZ-147" value="" style="verticalLabelPosition=bottom;verticalAlign=top;html=1;shape=mxgraph.basic.patternFillRect;fillStyle=auto;step=5;fillStrokeWidth=0.2;fillStrokeColor=#dddddd;gradientDirection=north;strokeColor=#666666;shadow=0;sketch=0;fillColor=#f5f5f5;gradientColor=#b3b3b3;" vertex="1" parent="RXlQQFgITEn8rvyz34GZ-138">
          <mxGeometry x="210" width="30" height="30" as="geometry" />
        </mxCell>
        <mxCell id="RXlQQFgITEn8rvyz34GZ-148" value="" style="verticalLabelPosition=bottom;verticalAlign=top;html=1;shape=mxgraph.basic.patternFillRect;fillStyle=auto;step=5;fillStrokeWidth=0.2;fillStrokeColor=#dddddd;gradientDirection=north;strokeColor=#666666;shadow=0;sketch=0;fillColor=#f5f5f5;gradientColor=#b3b3b3;" vertex="1" parent="RXlQQFgITEn8rvyz34GZ-138">
          <mxGeometry x="180" width="30" height="30" as="geometry" />
        </mxCell>
        <mxCell id="RXlQQFgITEn8rvyz34GZ-149" value="" style="verticalLabelPosition=bottom;verticalAlign=top;html=1;shape=mxgraph.basic.patternFillRect;fillStyle=auto;step=5;fillStrokeWidth=0.2;fillStrokeColor=#dddddd;gradientDirection=north;strokeColor=#666666;shadow=0;sketch=0;fillColor=#f5f5f5;gradientColor=#b3b3b3;" vertex="1" parent="RXlQQFgITEn8rvyz34GZ-138">
          <mxGeometry x="210" width="30" height="30" as="geometry" />
        </mxCell>
        <mxCell id="RXlQQFgITEn8rvyz34GZ-150" value="" style="verticalLabelPosition=bottom;verticalAlign=top;html=1;shape=mxgraph.basic.patternFillRect;fillStyle=auto;step=5;fillStrokeWidth=0.2;fillStrokeColor=#dddddd;gradientDirection=north;strokeColor=#666666;shadow=0;sketch=0;fillColor=#f5f5f5;gradientColor=#b3b3b3;" vertex="1" parent="RXlQQFgITEn8rvyz34GZ-138">
          <mxGeometry x="180" width="30" height="30" as="geometry" />
        </mxCell>
        <mxCell id="RXlQQFgITEn8rvyz34GZ-151" value="" style="verticalLabelPosition=bottom;verticalAlign=top;html=1;shape=mxgraph.basic.patternFillRect;fillStyle=auto;step=5;fillStrokeWidth=0.2;fillStrokeColor=#dddddd;gradientDirection=north;strokeColor=#666666;shadow=0;sketch=0;fillColor=#f5f5f5;gradientColor=#b3b3b3;" vertex="1" parent="RXlQQFgITEn8rvyz34GZ-138">
          <mxGeometry x="210" width="30" height="30" as="geometry" />
        </mxCell>
        <mxCell id="RXlQQFgITEn8rvyz34GZ-152" value="" style="verticalLabelPosition=bottom;verticalAlign=top;html=1;shape=mxgraph.basic.patternFillRect;fillStyle=auto;step=5;fillStrokeWidth=0.2;fillStrokeColor=#dddddd;gradientDirection=north;strokeColor=#666666;shadow=0;sketch=0;fillColor=#f5f5f5;gradientColor=#b3b3b3;" vertex="1" parent="RXlQQFgITEn8rvyz34GZ-138">
          <mxGeometry x="180" width="30" height="30" as="geometry" />
        </mxCell>
        <mxCell id="RXlQQFgITEn8rvyz34GZ-153" value="" style="verticalLabelPosition=bottom;verticalAlign=top;html=1;shape=mxgraph.basic.patternFillRect;fillStyle=auto;step=5;fillStrokeWidth=0.2;fillStrokeColor=#dddddd;gradientDirection=north;strokeColor=#666666;shadow=0;sketch=0;fillColor=#f5f5f5;gradientColor=#b3b3b3;" vertex="1" parent="RXlQQFgITEn8rvyz34GZ-138">
          <mxGeometry x="150" width="30" height="30" as="geometry" />
        </mxCell>
        <mxCell id="RXlQQFgITEn8rvyz34GZ-154" value="" style="verticalLabelPosition=bottom;verticalAlign=top;html=1;shape=mxgraph.basic.patternFillRect;fillStyle=auto;step=5;fillStrokeWidth=0.2;fillStrokeColor=#dddddd;gradientDirection=north;strokeColor=#666666;shadow=0;sketch=0;fillColor=#f5f5f5;gradientColor=#b3b3b3;" vertex="1" parent="RXlQQFgITEn8rvyz34GZ-138">
          <mxGeometry x="210" width="30" height="30" as="geometry" />
        </mxCell>
        <mxCell id="RXlQQFgITEn8rvyz34GZ-155" value="" style="verticalLabelPosition=bottom;verticalAlign=top;html=1;shape=mxgraph.basic.patternFillRect;fillStyle=auto;step=5;fillStrokeWidth=0.2;fillStrokeColor=#dddddd;gradientDirection=north;strokeColor=#666666;shadow=0;sketch=0;fillColor=#f5f5f5;gradientColor=#b3b3b3;" vertex="1" parent="RXlQQFgITEn8rvyz34GZ-138">
          <mxGeometry x="180" width="30" height="30" as="geometry" />
        </mxCell>
        <mxCell id="RXlQQFgITEn8rvyz34GZ-156" value="" style="verticalLabelPosition=bottom;verticalAlign=top;html=1;shape=mxgraph.basic.patternFillRect;fillStyle=auto;step=5;fillStrokeWidth=0.2;fillStrokeColor=#dddddd;gradientDirection=north;strokeColor=#666666;shadow=0;sketch=0;fillColor=#f5f5f5;gradientColor=#b3b3b3;" vertex="1" parent="RXlQQFgITEn8rvyz34GZ-138">
          <mxGeometry x="150" width="30" height="30" as="geometry" />
        </mxCell>
        <mxCell id="RXlQQFgITEn8rvyz34GZ-157" value="" style="verticalLabelPosition=bottom;verticalAlign=top;html=1;shape=mxgraph.basic.patternFillRect;fillStyle=auto;step=5;fillStrokeWidth=0.2;fillStrokeColor=#dddddd;gradientDirection=north;strokeColor=#666666;shadow=0;sketch=0;fillColor=#f5f5f5;gradientColor=#b3b3b3;" vertex="1" parent="RXlQQFgITEn8rvyz34GZ-138">
          <mxGeometry x="210" width="30" height="30" as="geometry" />
        </mxCell>
        <mxCell id="RXlQQFgITEn8rvyz34GZ-158" value="" style="verticalLabelPosition=bottom;verticalAlign=top;html=1;shape=mxgraph.basic.patternFillRect;fillStyle=auto;step=5;fillStrokeWidth=0.2;fillStrokeColor=#dddddd;gradientDirection=north;strokeColor=#666666;shadow=0;sketch=0;fillColor=#f5f5f5;gradientColor=#b3b3b3;" vertex="1" parent="RXlQQFgITEn8rvyz34GZ-138">
          <mxGeometry x="180" width="30" height="30" as="geometry" />
        </mxCell>
        <mxCell id="RXlQQFgITEn8rvyz34GZ-159" value="" style="verticalLabelPosition=bottom;verticalAlign=top;html=1;shape=mxgraph.basic.patternFillRect;fillStyle=auto;step=5;fillStrokeWidth=0.2;fillStrokeColor=#dddddd;gradientDirection=north;strokeColor=#666666;shadow=0;sketch=0;fillColor=#f5f5f5;gradientColor=#b3b3b3;" vertex="1" parent="RXlQQFgITEn8rvyz34GZ-138">
          <mxGeometry x="150" width="30" height="30" as="geometry" />
        </mxCell>
        <mxCell id="RXlQQFgITEn8rvyz34GZ-160" value="" style="verticalLabelPosition=bottom;verticalAlign=top;html=1;shape=mxgraph.basic.patternFillRect;fillStyle=auto;step=5;fillStrokeWidth=0.2;fillStrokeColor=#dddddd;gradientDirection=north;strokeColor=#666666;shadow=0;sketch=0;fillColor=#f5f5f5;gradientColor=#b3b3b3;" vertex="1" parent="RXlQQFgITEn8rvyz34GZ-138">
          <mxGeometry x="210" width="30" height="30" as="geometry" />
        </mxCell>
        <mxCell id="RXlQQFgITEn8rvyz34GZ-161" value="" style="verticalLabelPosition=bottom;verticalAlign=top;html=1;shape=mxgraph.basic.patternFillRect;fillStyle=auto;step=5;fillStrokeWidth=0.2;fillStrokeColor=#dddddd;gradientDirection=north;strokeColor=#666666;shadow=0;sketch=0;fillColor=#f5f5f5;gradientColor=#b3b3b3;" vertex="1" parent="RXlQQFgITEn8rvyz34GZ-138">
          <mxGeometry x="180" width="30" height="30" as="geometry" />
        </mxCell>
        <mxCell id="RXlQQFgITEn8rvyz34GZ-162" value="" style="verticalLabelPosition=bottom;verticalAlign=top;html=1;shape=mxgraph.basic.patternFillRect;fillStyle=auto;step=5;fillStrokeWidth=0.2;fillStrokeColor=#dddddd;gradientDirection=north;strokeColor=#666666;shadow=0;sketch=0;fillColor=#f5f5f5;gradientColor=#b3b3b3;" vertex="1" parent="RXlQQFgITEn8rvyz34GZ-138">
          <mxGeometry x="150" width="30" height="30" as="geometry" />
        </mxCell>
        <mxCell id="RXlQQFgITEn8rvyz34GZ-163" value="" style="verticalLabelPosition=bottom;verticalAlign=top;html=1;shape=mxgraph.basic.patternFillRect;fillStyle=auto;step=5;fillStrokeWidth=0.2;fillStrokeColor=#dddddd;gradientDirection=north;strokeColor=#666666;shadow=0;sketch=0;fillColor=#f5f5f5;gradientColor=#b3b3b3;" vertex="1" parent="RXlQQFgITEn8rvyz34GZ-138">
          <mxGeometry x="120" width="30" height="30" as="geometry" />
        </mxCell>
        <mxCell id="RXlQQFgITEn8rvyz34GZ-164" value="" style="verticalLabelPosition=bottom;verticalAlign=top;html=1;shape=mxgraph.basic.patternFillRect;fillStyle=auto;step=5;fillStrokeWidth=0.2;fillStrokeColor=#dddddd;gradientDirection=north;strokeColor=#666666;shadow=0;sketch=0;fillColor=#f5f5f5;gradientColor=#b3b3b3;" vertex="1" parent="RXlQQFgITEn8rvyz34GZ-138">
          <mxGeometry x="210" width="30" height="30" as="geometry" />
        </mxCell>
        <mxCell id="RXlQQFgITEn8rvyz34GZ-165" value="" style="verticalLabelPosition=bottom;verticalAlign=top;html=1;shape=mxgraph.basic.patternFillRect;fillStyle=auto;step=5;fillStrokeWidth=0.2;fillStrokeColor=#dddddd;gradientDirection=north;strokeColor=#666666;shadow=0;sketch=0;fillColor=#f5f5f5;gradientColor=#b3b3b3;" vertex="1" parent="RXlQQFgITEn8rvyz34GZ-138">
          <mxGeometry x="180" width="30" height="30" as="geometry" />
        </mxCell>
        <mxCell id="RXlQQFgITEn8rvyz34GZ-166" value="" style="verticalLabelPosition=bottom;verticalAlign=top;html=1;shape=mxgraph.basic.patternFillRect;fillStyle=auto;step=5;fillStrokeWidth=0.2;fillStrokeColor=#dddddd;gradientDirection=north;strokeColor=#666666;shadow=0;sketch=0;fillColor=#f5f5f5;gradientColor=#b3b3b3;" vertex="1" parent="RXlQQFgITEn8rvyz34GZ-138">
          <mxGeometry x="150" width="30" height="30" as="geometry" />
        </mxCell>
        <mxCell id="RXlQQFgITEn8rvyz34GZ-167" value="" style="verticalLabelPosition=bottom;verticalAlign=top;html=1;shape=mxgraph.basic.patternFillRect;fillStyle=auto;step=5;fillStrokeWidth=0.2;fillStrokeColor=#dddddd;gradientDirection=north;strokeColor=#666666;shadow=0;sketch=0;fillColor=#f5f5f5;gradientColor=#b3b3b3;" vertex="1" parent="RXlQQFgITEn8rvyz34GZ-138">
          <mxGeometry x="120" width="30" height="30" as="geometry" />
        </mxCell>
        <mxCell id="RXlQQFgITEn8rvyz34GZ-168" value="" style="verticalLabelPosition=bottom;verticalAlign=top;html=1;shape=mxgraph.basic.patternFillRect;fillStyle=auto;step=5;fillStrokeWidth=0.2;fillStrokeColor=#dddddd;gradientDirection=north;strokeColor=#666666;shadow=0;sketch=0;fillColor=#f5f5f5;gradientColor=#b3b3b3;" vertex="1" parent="RXlQQFgITEn8rvyz34GZ-138">
          <mxGeometry x="60" width="30" height="30" as="geometry" />
        </mxCell>
        <mxCell id="RXlQQFgITEn8rvyz34GZ-169" value="" style="verticalLabelPosition=bottom;verticalAlign=top;html=1;shape=mxgraph.basic.patternFillRect;fillStyle=auto;step=5;fillStrokeWidth=0.2;fillStrokeColor=#dddddd;gradientDirection=north;strokeColor=#666666;shadow=0;sketch=0;fillColor=#f5f5f5;gradientColor=#b3b3b3;" vertex="1" parent="RXlQQFgITEn8rvyz34GZ-138">
          <mxGeometry x="210" width="30" height="30" as="geometry" />
        </mxCell>
        <mxCell id="RXlQQFgITEn8rvyz34GZ-170" value="" style="verticalLabelPosition=bottom;verticalAlign=top;html=1;shape=mxgraph.basic.patternFillRect;fillStyle=auto;step=5;fillStrokeWidth=0.2;fillStrokeColor=#dddddd;gradientDirection=north;strokeColor=#666666;shadow=0;sketch=0;fillColor=#f5f5f5;gradientColor=#b3b3b3;" vertex="1" parent="RXlQQFgITEn8rvyz34GZ-138">
          <mxGeometry x="180" width="30" height="30" as="geometry" />
        </mxCell>
        <mxCell id="RXlQQFgITEn8rvyz34GZ-171" value="" style="verticalLabelPosition=bottom;verticalAlign=top;html=1;shape=mxgraph.basic.patternFillRect;fillStyle=auto;step=5;fillStrokeWidth=0.2;fillStrokeColor=#dddddd;gradientDirection=north;strokeColor=#666666;shadow=0;sketch=0;fillColor=#f5f5f5;gradientColor=#b3b3b3;" vertex="1" parent="RXlQQFgITEn8rvyz34GZ-138">
          <mxGeometry x="150" width="30" height="30" as="geometry" />
        </mxCell>
        <mxCell id="RXlQQFgITEn8rvyz34GZ-172" value="" style="verticalLabelPosition=bottom;verticalAlign=top;html=1;shape=mxgraph.basic.patternFillRect;fillStyle=auto;step=5;fillStrokeWidth=0.2;fillStrokeColor=#dddddd;gradientDirection=north;strokeColor=#666666;shadow=0;sketch=0;fillColor=#f5f5f5;gradientColor=#b3b3b3;" vertex="1" parent="RXlQQFgITEn8rvyz34GZ-138">
          <mxGeometry x="120" width="30" height="30" as="geometry" />
        </mxCell>
        <mxCell id="RXlQQFgITEn8rvyz34GZ-173" value="" style="verticalLabelPosition=bottom;verticalAlign=top;html=1;shape=mxgraph.basic.patternFillRect;fillStyle=auto;step=5;fillStrokeWidth=0.2;fillStrokeColor=#dddddd;gradientDirection=north;strokeColor=#666666;shadow=0;sketch=0;fillColor=#f5f5f5;gradientColor=#b3b3b3;" vertex="1" parent="RXlQQFgITEn8rvyz34GZ-138">
          <mxGeometry x="60" width="30" height="30" as="geometry" />
        </mxCell>
        <mxCell id="RXlQQFgITEn8rvyz34GZ-174" value="" style="verticalLabelPosition=bottom;verticalAlign=top;html=1;shape=mxgraph.basic.patternFillRect;fillStyle=auto;step=5;fillStrokeWidth=0.2;fillStrokeColor=#dddddd;gradientDirection=north;strokeColor=#666666;shadow=0;sketch=0;fillColor=#f5f5f5;gradientColor=#b3b3b3;" vertex="1" parent="RXlQQFgITEn8rvyz34GZ-138">
          <mxGeometry x="210" width="30" height="30" as="geometry" />
        </mxCell>
        <mxCell id="RXlQQFgITEn8rvyz34GZ-175" value="" style="verticalLabelPosition=bottom;verticalAlign=top;html=1;shape=mxgraph.basic.patternFillRect;fillStyle=auto;step=5;fillStrokeWidth=0.2;fillStrokeColor=#dddddd;gradientDirection=north;strokeColor=#666666;shadow=0;sketch=0;fillColor=#f5f5f5;gradientColor=#b3b3b3;" vertex="1" parent="RXlQQFgITEn8rvyz34GZ-138">
          <mxGeometry x="180" width="30" height="30" as="geometry" />
        </mxCell>
        <mxCell id="RXlQQFgITEn8rvyz34GZ-176" value="" style="verticalLabelPosition=bottom;verticalAlign=top;html=1;shape=mxgraph.basic.patternFillRect;fillStyle=auto;step=5;fillStrokeWidth=0.2;fillStrokeColor=#dddddd;gradientDirection=north;strokeColor=#666666;shadow=0;sketch=0;fillColor=#f5f5f5;gradientColor=#b3b3b3;" vertex="1" parent="RXlQQFgITEn8rvyz34GZ-138">
          <mxGeometry x="150" width="30" height="30" as="geometry" />
        </mxCell>
        <mxCell id="RXlQQFgITEn8rvyz34GZ-177" value="" style="verticalLabelPosition=bottom;verticalAlign=top;html=1;shape=mxgraph.basic.patternFillRect;fillStyle=auto;step=5;fillStrokeWidth=0.2;fillStrokeColor=#dddddd;gradientDirection=north;strokeColor=#666666;shadow=0;sketch=0;fillColor=#f5f5f5;gradientColor=#b3b3b3;" vertex="1" parent="RXlQQFgITEn8rvyz34GZ-138">
          <mxGeometry x="120" width="30" height="30" as="geometry" />
        </mxCell>
        <mxCell id="RXlQQFgITEn8rvyz34GZ-178" value="" style="verticalLabelPosition=bottom;verticalAlign=top;html=1;shape=mxgraph.basic.patternFillRect;fillStyle=auto;step=5;fillStrokeWidth=0.2;fillStrokeColor=#dddddd;gradientDirection=north;strokeColor=#666666;shadow=0;sketch=0;fillColor=#f5f5f5;gradientColor=#b3b3b3;" vertex="1" parent="RXlQQFgITEn8rvyz34GZ-138">
          <mxGeometry x="60" width="30" height="30" as="geometry" />
        </mxCell>
        <mxCell id="RXlQQFgITEn8rvyz34GZ-179" value="" style="verticalLabelPosition=bottom;verticalAlign=top;html=1;shape=mxgraph.basic.patternFillRect;fillStyle=auto;step=5;fillStrokeWidth=0.2;fillStrokeColor=#dddddd;gradientDirection=north;strokeColor=#666666;shadow=0;sketch=0;fillColor=#f5f5f5;gradientColor=#b3b3b3;" vertex="1" parent="RXlQQFgITEn8rvyz34GZ-138">
          <mxGeometry x="210" width="30" height="30" as="geometry" />
        </mxCell>
        <mxCell id="RXlQQFgITEn8rvyz34GZ-180" value="" style="verticalLabelPosition=bottom;verticalAlign=top;html=1;shape=mxgraph.basic.patternFillRect;fillStyle=auto;step=5;fillStrokeWidth=0.2;fillStrokeColor=#dddddd;gradientDirection=north;strokeColor=#666666;shadow=0;sketch=0;fillColor=#f5f5f5;gradientColor=#b3b3b3;" vertex="1" parent="RXlQQFgITEn8rvyz34GZ-138">
          <mxGeometry x="180" width="30" height="30" as="geometry" />
        </mxCell>
        <mxCell id="RXlQQFgITEn8rvyz34GZ-181" value="" style="verticalLabelPosition=bottom;verticalAlign=top;html=1;shape=mxgraph.basic.patternFillRect;fillStyle=auto;step=5;fillStrokeWidth=0.2;fillStrokeColor=#dddddd;gradientDirection=north;strokeColor=#666666;shadow=0;sketch=0;fillColor=#f5f5f5;gradientColor=#b3b3b3;" vertex="1" parent="RXlQQFgITEn8rvyz34GZ-138">
          <mxGeometry x="150" width="30" height="30" as="geometry" />
        </mxCell>
        <mxCell id="RXlQQFgITEn8rvyz34GZ-182" value="" style="verticalLabelPosition=bottom;verticalAlign=top;html=1;shape=mxgraph.basic.patternFillRect;fillStyle=auto;step=5;fillStrokeWidth=0.2;fillStrokeColor=#dddddd;gradientDirection=north;strokeColor=#666666;shadow=0;sketch=0;fillColor=#f5f5f5;gradientColor=#b3b3b3;" vertex="1" parent="RXlQQFgITEn8rvyz34GZ-138">
          <mxGeometry x="120" width="30" height="30" as="geometry" />
        </mxCell>
        <mxCell id="RXlQQFgITEn8rvyz34GZ-183" value="" style="verticalLabelPosition=bottom;verticalAlign=top;html=1;shape=mxgraph.basic.patternFillRect;fillStyle=auto;step=5;fillStrokeWidth=0.2;fillStrokeColor=#dddddd;gradientDirection=north;strokeColor=#666666;shadow=0;sketch=0;fillColor=#f5f5f5;gradientColor=#b3b3b3;" vertex="1" parent="RXlQQFgITEn8rvyz34GZ-138">
          <mxGeometry x="60" width="30" height="30" as="geometry" />
        </mxCell>
        <mxCell id="RXlQQFgITEn8rvyz34GZ-184" value="" style="verticalLabelPosition=bottom;verticalAlign=top;html=1;shape=mxgraph.basic.patternFillRect;fillStyle=auto;step=5;fillStrokeWidth=0.2;fillStrokeColor=#dddddd;gradientDirection=north;strokeColor=#666666;shadow=0;sketch=0;fillColor=#f5f5f5;gradientColor=#b3b3b3;" vertex="1" parent="RXlQQFgITEn8rvyz34GZ-138">
          <mxGeometry width="30" height="30" as="geometry" />
        </mxCell>
        <mxCell id="RXlQQFgITEn8rvyz34GZ-185" value="" style="verticalLabelPosition=bottom;verticalAlign=top;html=1;shape=mxgraph.basic.patternFillRect;fillStyle=auto;step=5;fillStrokeWidth=0.2;fillStrokeColor=#dddddd;gradientDirection=north;strokeColor=#666666;shadow=0;sketch=0;fillColor=#f5f5f5;gradientColor=#b3b3b3;" vertex="1" parent="RXlQQFgITEn8rvyz34GZ-138">
          <mxGeometry x="210" width="30" height="30" as="geometry" />
        </mxCell>
        <mxCell id="RXlQQFgITEn8rvyz34GZ-186" value="" style="verticalLabelPosition=bottom;verticalAlign=top;html=1;shape=mxgraph.basic.patternFillRect;fillStyle=auto;step=5;fillStrokeWidth=0.2;fillStrokeColor=#dddddd;gradientDirection=north;strokeColor=#666666;shadow=0;sketch=0;fillColor=#f5f5f5;gradientColor=#b3b3b3;" vertex="1" parent="RXlQQFgITEn8rvyz34GZ-138">
          <mxGeometry x="180" width="30" height="30" as="geometry" />
        </mxCell>
        <mxCell id="RXlQQFgITEn8rvyz34GZ-187" value="" style="verticalLabelPosition=bottom;verticalAlign=top;html=1;shape=mxgraph.basic.patternFillRect;fillStyle=auto;step=5;fillStrokeWidth=0.2;fillStrokeColor=#dddddd;gradientDirection=north;strokeColor=#666666;shadow=0;sketch=0;fillColor=#f5f5f5;gradientColor=#b3b3b3;" vertex="1" parent="RXlQQFgITEn8rvyz34GZ-138">
          <mxGeometry x="150" width="30" height="30" as="geometry" />
        </mxCell>
        <mxCell id="RXlQQFgITEn8rvyz34GZ-188" value="" style="verticalLabelPosition=bottom;verticalAlign=top;html=1;shape=mxgraph.basic.patternFillRect;fillStyle=auto;step=5;fillStrokeWidth=0.2;fillStrokeColor=#dddddd;gradientDirection=north;strokeColor=#666666;shadow=0;sketch=0;fillColor=#f5f5f5;gradientColor=#b3b3b3;" vertex="1" parent="RXlQQFgITEn8rvyz34GZ-138">
          <mxGeometry x="120" width="30" height="30" as="geometry" />
        </mxCell>
        <mxCell id="RXlQQFgITEn8rvyz34GZ-189" value="" style="verticalLabelPosition=bottom;verticalAlign=top;html=1;shape=mxgraph.basic.patternFillRect;fillStyle=auto;step=5;fillStrokeWidth=0.2;fillStrokeColor=#dddddd;gradientDirection=north;strokeColor=#666666;shadow=0;sketch=0;fillColor=#f5f5f5;gradientColor=#b3b3b3;" vertex="1" parent="RXlQQFgITEn8rvyz34GZ-138">
          <mxGeometry x="60" width="30" height="30" as="geometry" />
        </mxCell>
        <mxCell id="RXlQQFgITEn8rvyz34GZ-190" value="" style="verticalLabelPosition=bottom;verticalAlign=top;html=1;shape=mxgraph.basic.patternFillRect;fillStyle=auto;step=5;fillStrokeWidth=0.2;fillStrokeColor=#dddddd;gradientDirection=north;strokeColor=#666666;shadow=0;sketch=0;fillColor=#f5f5f5;gradientColor=#b3b3b3;" vertex="1" parent="RXlQQFgITEn8rvyz34GZ-138">
          <mxGeometry width="30" height="30" as="geometry" />
        </mxCell>
        <mxCell id="RXlQQFgITEn8rvyz34GZ-191" value="" style="verticalLabelPosition=bottom;verticalAlign=top;html=1;shape=mxgraph.basic.patternFillRect;fillStyle=auto;step=5;fillStrokeWidth=0.2;fillStrokeColor=#dddddd;gradientDirection=north;strokeColor=#666666;shadow=0;sketch=0;fillColor=#f5f5f5;gradientColor=#b3b3b3;" vertex="1" parent="RXlQQFgITEn8rvyz34GZ-138">
          <mxGeometry x="30" width="30" height="30" as="geometry" />
        </mxCell>
        <mxCell id="RXlQQFgITEn8rvyz34GZ-192" value="" style="verticalLabelPosition=bottom;verticalAlign=top;html=1;shape=mxgraph.basic.patternFillRect;fillStyle=auto;step=5;fillStrokeWidth=0.2;fillStrokeColor=#dddddd;gradientDirection=north;strokeColor=#666666;shadow=0;sketch=0;fillColor=#f5f5f5;gradientColor=#b3b3b3;" vertex="1" parent="RXlQQFgITEn8rvyz34GZ-138">
          <mxGeometry x="210" width="30" height="30" as="geometry" />
        </mxCell>
        <mxCell id="RXlQQFgITEn8rvyz34GZ-193" value="" style="verticalLabelPosition=bottom;verticalAlign=top;html=1;shape=mxgraph.basic.patternFillRect;fillStyle=auto;step=5;fillStrokeWidth=0.2;fillStrokeColor=#dddddd;gradientDirection=north;strokeColor=#666666;shadow=0;sketch=0;fillColor=#878787;gradientColor=#B3B3B3;" vertex="1" parent="RXlQQFgITEn8rvyz34GZ-138">
          <mxGeometry x="180" width="30" height="30" as="geometry" />
        </mxCell>
        <mxCell id="RXlQQFgITEn8rvyz34GZ-194" value="" style="verticalLabelPosition=bottom;verticalAlign=top;html=1;shape=mxgraph.basic.patternFillRect;fillStyle=auto;step=5;fillStrokeWidth=0.2;fillStrokeColor=#dddddd;gradientDirection=north;strokeColor=#666666;shadow=0;sketch=0;fillColor=#f5f5f5;gradientColor=#b3b3b3;" vertex="1" parent="RXlQQFgITEn8rvyz34GZ-138">
          <mxGeometry x="150" width="30" height="30" as="geometry" />
        </mxCell>
        <mxCell id="RXlQQFgITEn8rvyz34GZ-195" value="" style="verticalLabelPosition=bottom;verticalAlign=top;html=1;shape=mxgraph.basic.patternFillRect;fillStyle=auto;step=5;fillStrokeWidth=0.2;fillStrokeColor=#dddddd;gradientDirection=north;strokeColor=#666666;shadow=0;sketch=0;fillColor=#f5f5f5;gradientColor=#b3b3b3;" vertex="1" parent="RXlQQFgITEn8rvyz34GZ-138">
          <mxGeometry x="120" width="30" height="30" as="geometry" />
        </mxCell>
        <mxCell id="RXlQQFgITEn8rvyz34GZ-196" value="" style="verticalLabelPosition=bottom;verticalAlign=top;html=1;shape=mxgraph.basic.patternFillRect;fillStyle=auto;step=5;fillStrokeWidth=0.2;fillStrokeColor=#dddddd;gradientDirection=north;strokeColor=#666666;shadow=0;sketch=0;fillColor=#f5f5f5;gradientColor=#b3b3b3;" vertex="1" parent="RXlQQFgITEn8rvyz34GZ-138">
          <mxGeometry x="60" width="30" height="30" as="geometry" />
        </mxCell>
        <mxCell id="RXlQQFgITEn8rvyz34GZ-197" value="" style="verticalLabelPosition=bottom;verticalAlign=top;html=1;shape=mxgraph.basic.patternFillRect;fillStyle=auto;step=5;fillStrokeWidth=0.2;fillStrokeColor=#dddddd;gradientDirection=north;strokeColor=#666666;shadow=0;sketch=0;fillColor=#f5f5f5;gradientColor=#b3b3b3;" vertex="1" parent="RXlQQFgITEn8rvyz34GZ-138">
          <mxGeometry width="30" height="30" as="geometry" />
        </mxCell>
        <mxCell id="RXlQQFgITEn8rvyz34GZ-198" value="" style="verticalLabelPosition=bottom;verticalAlign=top;html=1;shape=mxgraph.basic.patternFillRect;fillStyle=auto;step=5;fillStrokeWidth=0.2;fillStrokeColor=#dddddd;gradientDirection=north;strokeColor=#666666;shadow=0;sketch=0;fillColor=#f5f5f5;gradientColor=#b3b3b3;" vertex="1" parent="RXlQQFgITEn8rvyz34GZ-138">
          <mxGeometry x="30" width="30" height="30" as="geometry" />
        </mxCell>
        <mxCell id="RXlQQFgITEn8rvyz34GZ-199" value="" style="verticalLabelPosition=bottom;verticalAlign=top;html=1;shape=mxgraph.basic.patternFillRect;fillStyle=auto;step=5;fillStrokeWidth=0.2;fillStrokeColor=#dddddd;gradientDirection=north;strokeColor=#666666;shadow=0;sketch=0;fillColor=#f5f5f5;gradientColor=#b3b3b3;" vertex="1" parent="RXlQQFgITEn8rvyz34GZ-138">
          <mxGeometry x="90" width="30" height="30" as="geometry" />
        </mxCell>
        <mxCell id="RXlQQFgITEn8rvyz34GZ-200" value="" style="verticalLabelPosition=bottom;verticalAlign=top;html=1;shape=mxgraph.basic.patternFillRect;fillStyle=auto;step=5;fillStrokeWidth=0.2;fillStrokeColor=#dddddd;gradientDirection=north;strokeColor=#666666;shadow=0;sketch=0;fillColor=#f5f5f5;gradientColor=#b3b3b3;" vertex="1" parent="RXlQQFgITEn8rvyz34GZ-138">
          <mxGeometry width="30" height="30" as="geometry" />
        </mxCell>
        <mxCell id="RXlQQFgITEn8rvyz34GZ-201" value="" style="verticalLabelPosition=bottom;verticalAlign=top;html=1;shape=mxgraph.basic.patternFillRect;fillStyle=auto;step=5;fillStrokeWidth=0.2;fillStrokeColor=#dddddd;gradientDirection=north;strokeColor=#666666;shadow=0;sketch=0;fillColor=#f5f5f5;gradientColor=#b3b3b3;" vertex="1" parent="RXlQQFgITEn8rvyz34GZ-138">
          <mxGeometry x="30" width="30" height="30" as="geometry" />
        </mxCell>
        <mxCell id="RXlQQFgITEn8rvyz34GZ-202" value="" style="verticalLabelPosition=bottom;verticalAlign=top;html=1;shape=mxgraph.basic.patternFillRect;fillStyle=auto;step=5;fillStrokeWidth=0.2;fillStrokeColor=#dddddd;gradientDirection=north;strokeColor=#666666;shadow=0;sketch=0;fillColor=#f5f5f5;gradientColor=#b3b3b3;" vertex="1" parent="RXlQQFgITEn8rvyz34GZ-138">
          <mxGeometry x="60" width="30" height="30" as="geometry" />
        </mxCell>
        <mxCell id="RXlQQFgITEn8rvyz34GZ-203" value="" style="verticalLabelPosition=bottom;verticalAlign=top;html=1;shape=mxgraph.basic.patternFillRect;fillStyle=auto;step=5;fillStrokeWidth=0.2;fillStrokeColor=#dddddd;gradientDirection=north;strokeColor=#666666;shadow=0;sketch=0;fillColor=#f5f5f5;gradientColor=#b3b3b3;" vertex="1" parent="RXlQQFgITEn8rvyz34GZ-138">
          <mxGeometry x="120" width="30" height="30" as="geometry" />
        </mxCell>
        <mxCell id="RXlQQFgITEn8rvyz34GZ-204" value="" style="verticalLabelPosition=bottom;verticalAlign=top;html=1;shape=mxgraph.basic.patternFillRect;fillStyle=auto;step=5;fillStrokeWidth=0.2;fillStrokeColor=#dddddd;gradientDirection=north;strokeColor=#666666;shadow=0;sketch=0;fillColor=#f5f5f5;gradientColor=#b3b3b3;" vertex="1" parent="RXlQQFgITEn8rvyz34GZ-138">
          <mxGeometry x="150" width="30" height="30" as="geometry" />
        </mxCell>
        <mxCell id="RXlQQFgITEn8rvyz34GZ-205" value="" style="verticalLabelPosition=bottom;verticalAlign=top;html=1;shape=mxgraph.basic.patternFillRect;fillStyle=auto;step=5;fillStrokeWidth=0.2;fillStrokeColor=#dddddd;gradientDirection=north;strokeColor=#666666;shadow=0;sketch=0;fillColor=#f5f5f5;gradientColor=#b3b3b3;" vertex="1" parent="RXlQQFgITEn8rvyz34GZ-138">
          <mxGeometry x="90" width="30" height="30" as="geometry" />
        </mxCell>
        <mxCell id="RXlQQFgITEn8rvyz34GZ-206" value="" style="verticalLabelPosition=bottom;verticalAlign=top;html=1;shape=mxgraph.basic.patternFillRect;fillStyle=auto;step=5;fillStrokeWidth=0.2;fillStrokeColor=#dddddd;gradientDirection=north;strokeColor=#666666;shadow=0;sketch=0;fillColor=#f5f5f5;gradientColor=#b3b3b3;" vertex="1" parent="RXlQQFgITEn8rvyz34GZ-138">
          <mxGeometry width="30" height="30" as="geometry" />
        </mxCell>
        <mxCell id="RXlQQFgITEn8rvyz34GZ-207" value="" style="verticalLabelPosition=bottom;verticalAlign=top;html=1;shape=mxgraph.basic.patternFillRect;fillStyle=auto;step=5;fillStrokeWidth=0.2;fillStrokeColor=#dddddd;gradientDirection=north;strokeColor=#666666;shadow=0;sketch=0;fillColor=#f5f5f5;gradientColor=#b3b3b3;" vertex="1" parent="RXlQQFgITEn8rvyz34GZ-138">
          <mxGeometry x="30" width="30" height="30" as="geometry" />
        </mxCell>
        <mxCell id="RXlQQFgITEn8rvyz34GZ-208" value="" style="verticalLabelPosition=bottom;verticalAlign=top;html=1;shape=mxgraph.basic.patternFillRect;fillStyle=auto;step=5;fillStrokeWidth=0.2;fillStrokeColor=#dddddd;gradientDirection=north;strokeColor=#666666;shadow=0;sketch=0;fillColor=#f5f5f5;gradientColor=#b3b3b3;" vertex="1" parent="RXlQQFgITEn8rvyz34GZ-138">
          <mxGeometry x="60" width="30" height="30" as="geometry" />
        </mxCell>
        <mxCell id="RXlQQFgITEn8rvyz34GZ-209" value="" style="verticalLabelPosition=bottom;verticalAlign=top;html=1;shape=mxgraph.basic.patternFillRect;fillStyle=auto;step=5;fillStrokeWidth=0.2;fillStrokeColor=#dddddd;gradientDirection=north;strokeColor=#666666;shadow=0;sketch=0;fillColor=#f5f5f5;gradientColor=#b3b3b3;" vertex="1" parent="RXlQQFgITEn8rvyz34GZ-138">
          <mxGeometry x="120" width="30" height="30" as="geometry" />
        </mxCell>
        <mxCell id="RXlQQFgITEn8rvyz34GZ-210" value="" style="verticalLabelPosition=bottom;verticalAlign=top;html=1;shape=mxgraph.basic.patternFillRect;fillStyle=auto;step=5;fillStrokeWidth=0.2;fillStrokeColor=#dddddd;gradientDirection=north;strokeColor=#666666;shadow=0;sketch=0;fillColor=#f5f5f5;gradientColor=#b3b3b3;" vertex="1" parent="RXlQQFgITEn8rvyz34GZ-138">
          <mxGeometry x="150" width="30" height="30" as="geometry" />
        </mxCell>
        <mxCell id="RXlQQFgITEn8rvyz34GZ-211" value="" style="verticalLabelPosition=bottom;verticalAlign=top;html=1;shape=mxgraph.basic.patternFillRect;fillStyle=auto;step=5;fillStrokeWidth=0.2;fillStrokeColor=#dddddd;gradientDirection=north;strokeColor=#666666;shadow=0;sketch=0;fillColor=#f5f5f5;gradientColor=#b3b3b3;" vertex="1" parent="RXlQQFgITEn8rvyz34GZ-138">
          <mxGeometry x="210" width="30" height="30" as="geometry" />
        </mxCell>
        <mxCell id="RXlQQFgITEn8rvyz34GZ-212" value="" style="verticalLabelPosition=bottom;verticalAlign=top;html=1;shape=mxgraph.basic.patternFillRect;fillStyle=auto;step=5;fillStrokeWidth=0.2;fillStrokeColor=#dddddd;gradientDirection=north;strokeColor=#666666;shadow=0;sketch=0;fillColor=#878787;gradientColor=#B3B3B3;" vertex="1" parent="RXlQQFgITEn8rvyz34GZ-138">
          <mxGeometry x="90" width="30" height="30" as="geometry" />
        </mxCell>
        <mxCell id="RXlQQFgITEn8rvyz34GZ-213" value="" style="verticalLabelPosition=bottom;verticalAlign=top;html=1;shape=mxgraph.basic.patternFillRect;fillStyle=auto;step=5;fillStrokeWidth=0.2;fillStrokeColor=#dddddd;gradientDirection=north;strokeColor=#666666;shadow=0;sketch=0;fillColor=#878787;gradientColor=#B3B3B3;" vertex="1" parent="RXlQQFgITEn8rvyz34GZ-138">
          <mxGeometry width="30" height="30" as="geometry" />
        </mxCell>
        <mxCell id="RXlQQFgITEn8rvyz34GZ-214" value="" style="verticalLabelPosition=bottom;verticalAlign=top;html=1;shape=mxgraph.basic.patternFillRect;fillStyle=auto;step=5;fillStrokeWidth=0.2;fillStrokeColor=#dddddd;gradientDirection=north;strokeColor=#666666;shadow=0;sketch=0;fillColor=#878787;gradientColor=#B3B3B3;" vertex="1" parent="RXlQQFgITEn8rvyz34GZ-138">
          <mxGeometry x="30" width="30" height="30" as="geometry" />
        </mxCell>
        <mxCell id="RXlQQFgITEn8rvyz34GZ-215" value="" style="verticalLabelPosition=bottom;verticalAlign=top;html=1;shape=mxgraph.basic.patternFillRect;fillStyle=auto;step=5;fillStrokeWidth=0.2;fillStrokeColor=#dddddd;gradientDirection=north;strokeColor=#666666;shadow=0;sketch=0;fillColor=#878787;gradientColor=#B3B3B3;" vertex="1" parent="RXlQQFgITEn8rvyz34GZ-138">
          <mxGeometry x="60" width="30" height="30" as="geometry" />
        </mxCell>
        <mxCell id="RXlQQFgITEn8rvyz34GZ-216" value="" style="verticalLabelPosition=bottom;verticalAlign=top;html=1;shape=mxgraph.basic.patternFillRect;fillStyle=auto;step=5;fillStrokeWidth=0.2;fillStrokeColor=#dddddd;gradientDirection=north;strokeColor=#666666;shadow=0;sketch=0;fillColor=#878787;gradientColor=#B3B3B3;" vertex="1" parent="RXlQQFgITEn8rvyz34GZ-138">
          <mxGeometry x="120" width="30" height="30" as="geometry" />
        </mxCell>
        <mxCell id="RXlQQFgITEn8rvyz34GZ-217" value="" style="verticalLabelPosition=bottom;verticalAlign=top;html=1;shape=mxgraph.basic.patternFillRect;fillStyle=auto;step=5;fillStrokeWidth=0.2;fillStrokeColor=#dddddd;gradientDirection=north;strokeColor=#666666;shadow=0;sketch=0;fillColor=#878787;gradientColor=#B3B3B3;" vertex="1" parent="RXlQQFgITEn8rvyz34GZ-138">
          <mxGeometry x="150" width="30" height="30" as="geometry" />
        </mxCell>
        <mxCell id="RXlQQFgITEn8rvyz34GZ-218" value="" style="verticalLabelPosition=bottom;verticalAlign=top;html=1;shape=mxgraph.basic.patternFillRect;fillStyle=auto;step=5;fillStrokeWidth=0.2;fillStrokeColor=#dddddd;gradientDirection=north;strokeColor=#666666;shadow=0;sketch=0;fillColor=#878787;gradientColor=#B3B3B3;" vertex="1" parent="RXlQQFgITEn8rvyz34GZ-138">
          <mxGeometry x="210" width="30" height="30" as="geometry" />
        </mxCell>
        <mxCell id="RXlQQFgITEn8rvyz34GZ-219" value="" style="verticalLabelPosition=bottom;verticalAlign=top;html=1;shape=mxgraph.basic.patternFillRect;fillStyle=auto;step=5;fillStrokeWidth=0.2;fillStrokeColor=#dddddd;gradientDirection=north;strokeColor=#666666;shadow=0;sketch=0;fillColor=#f5f5f5;gradientColor=#b3b3b3;" vertex="1" parent="RXlQQFgITEn8rvyz34GZ-137">
          <mxGeometry width="30" height="30" as="geometry" />
        </mxCell>
        <mxCell id="RXlQQFgITEn8rvyz34GZ-220" value="" style="verticalLabelPosition=bottom;verticalAlign=top;html=1;shape=mxgraph.basic.patternFillRect;fillStyle=auto;step=5;fillStrokeWidth=0.2;fillStrokeColor=#dddddd;gradientDirection=north;strokeColor=#666666;shadow=0;sketch=0;fillColor=#f5f5f5;gradientColor=#b3b3b3;" vertex="1" parent="RXlQQFgITEn8rvyz34GZ-137">
          <mxGeometry x="120" width="30" height="30" as="geometry" />
        </mxCell>
        <mxCell id="RXlQQFgITEn8rvyz34GZ-221" value="" style="verticalLabelPosition=bottom;verticalAlign=top;html=1;shape=mxgraph.basic.patternFillRect;fillStyle=auto;step=5;fillStrokeWidth=0.2;fillStrokeColor=#dddddd;gradientDirection=north;strokeColor=#666666;shadow=0;sketch=0;fillColor=#f5f5f5;gradientColor=#b3b3b3;" vertex="1" parent="RXlQQFgITEn8rvyz34GZ-137">
          <mxGeometry x="30" width="30" height="30" as="geometry" />
        </mxCell>
        <mxCell id="RXlQQFgITEn8rvyz34GZ-222" value="" style="verticalLabelPosition=bottom;verticalAlign=top;html=1;shape=mxgraph.basic.patternFillRect;fillStyle=auto;step=5;fillStrokeWidth=0.2;fillStrokeColor=#dddddd;gradientDirection=north;strokeColor=#666666;shadow=0;sketch=0;fillColor=#f5f5f5;gradientColor=#b3b3b3;" vertex="1" parent="RXlQQFgITEn8rvyz34GZ-137">
          <mxGeometry x="150" width="30" height="30" as="geometry" />
        </mxCell>
        <mxCell id="RXlQQFgITEn8rvyz34GZ-223" value="" style="verticalLabelPosition=bottom;verticalAlign=top;html=1;shape=mxgraph.basic.patternFillRect;fillStyle=auto;step=5;fillStrokeWidth=0.2;fillStrokeColor=#dddddd;gradientDirection=north;strokeColor=#666666;shadow=0;sketch=0;fillColor=#f5f5f5;gradientColor=#b3b3b3;" vertex="1" parent="RXlQQFgITEn8rvyz34GZ-137">
          <mxGeometry x="60" width="30" height="30" as="geometry" />
        </mxCell>
        <mxCell id="RXlQQFgITEn8rvyz34GZ-224" value="" style="verticalLabelPosition=bottom;verticalAlign=top;html=1;shape=mxgraph.basic.patternFillRect;fillStyle=auto;step=5;fillStrokeWidth=0.2;fillStrokeColor=#dddddd;gradientDirection=north;strokeColor=#666666;shadow=0;sketch=0;fillColor=#f5f5f5;gradientColor=#b3b3b3;" vertex="1" parent="RXlQQFgITEn8rvyz34GZ-137">
          <mxGeometry x="180" width="30" height="30" as="geometry" />
        </mxCell>
        <mxCell id="RXlQQFgITEn8rvyz34GZ-225" value="" style="verticalLabelPosition=bottom;verticalAlign=top;html=1;shape=mxgraph.basic.patternFillRect;fillStyle=auto;step=5;fillStrokeWidth=0.2;fillStrokeColor=#dddddd;gradientDirection=north;strokeColor=#666666;shadow=0;sketch=0;fillColor=#f5f5f5;gradientColor=#b3b3b3;" vertex="1" parent="RXlQQFgITEn8rvyz34GZ-137">
          <mxGeometry x="90" width="30" height="30" as="geometry" />
        </mxCell>
        <mxCell id="RXlQQFgITEn8rvyz34GZ-226" value="" style="verticalLabelPosition=bottom;verticalAlign=top;html=1;shape=mxgraph.basic.patternFillRect;fillStyle=auto;step=5;fillStrokeWidth=0.2;fillStrokeColor=#dddddd;gradientDirection=north;strokeColor=#666666;shadow=0;sketch=0;fillColor=#f5f5f5;gradientColor=#b3b3b3;" vertex="1" parent="RXlQQFgITEn8rvyz34GZ-137">
          <mxGeometry x="210" width="30" height="30" as="geometry" />
        </mxCell>
        <mxCell id="RXlQQFgITEn8rvyz34GZ-227" value="" style="shape=cube;whiteSpace=wrap;html=1;boundedLbl=1;backgroundOutline=1;darkOpacity=0.05;darkOpacity2=0.1;dashed=1;fontSize=20;fillColor=none;" vertex="1" parent="RXlQQFgITEn8rvyz34GZ-137">
          <mxGeometry x="99.77999999999997" y="-29.5" width="50" height="69" as="geometry" />
        </mxCell>
        <mxCell id="RXlQQFgITEn8rvyz34GZ-228" value="" style="shape=cube;whiteSpace=wrap;html=1;boundedLbl=1;backgroundOutline=1;darkOpacity=0.05;darkOpacity2=0.1;dashed=1;fontSize=20;fillColor=none;" vertex="1" parent="RXlQQFgITEn8rvyz34GZ-137">
          <mxGeometry x="129.77999999999997" y="-29.5" width="50" height="69" as="geometry" />
        </mxCell>
        <mxCell id="RXlQQFgITEn8rvyz34GZ-229" value="" style="shape=cube;whiteSpace=wrap;html=1;boundedLbl=1;backgroundOutline=1;darkOpacity=0.05;darkOpacity2=0.1;dashed=1;fontSize=20;fillColor=none;" vertex="1" parent="RXlQQFgITEn8rvyz34GZ-137">
          <mxGeometry x="160" y="-29.5" width="50" height="69" as="geometry" />
        </mxCell>
        <mxCell id="RXlQQFgITEn8rvyz34GZ-230" value="" style="shape=cube;whiteSpace=wrap;html=1;boundedLbl=1;backgroundOutline=1;darkOpacity=0.05;darkOpacity2=0.1;dashed=1;fontSize=20;fillColor=none;" vertex="1" parent="RXlQQFgITEn8rvyz34GZ-137">
          <mxGeometry x="190" y="-29.5" width="50" height="69" as="geometry" />
        </mxCell>
        <mxCell id="RXlQQFgITEn8rvyz34GZ-231" value="" style="shape=cube;whiteSpace=wrap;html=1;boundedLbl=1;backgroundOutline=1;darkOpacity=0.05;darkOpacity2=0.1;dashed=1;fontSize=20;fillColor=none;" vertex="1" parent="1">
          <mxGeometry x="819" y="1981" width="50" height="69" as="geometry" />
        </mxCell>
        <mxCell id="RXlQQFgITEn8rvyz34GZ-232" value="" style="shape=cube;whiteSpace=wrap;html=1;boundedLbl=1;backgroundOutline=1;darkOpacity=0.05;darkOpacity2=0.1;dashed=1;fontSize=20;fillColor=none;" vertex="1" parent="1">
          <mxGeometry x="789" y="1981" width="50" height="69" as="geometry" />
        </mxCell>
        <mxCell id="RXlQQFgITEn8rvyz34GZ-233" value="" style="shape=cube;whiteSpace=wrap;html=1;boundedLbl=1;backgroundOutline=1;darkOpacity=0.05;darkOpacity2=0.1;dashed=1;fontSize=20;fillColor=none;" vertex="1" parent="1">
          <mxGeometry x="849.22" y="1981" width="50" height="69" as="geometry" />
        </mxCell>
        <mxCell id="RXlQQFgITEn8rvyz34GZ-234" value="" style="shape=cube;whiteSpace=wrap;html=1;boundedLbl=1;backgroundOutline=1;darkOpacity=0.05;darkOpacity2=0.1;dashed=1;fontSize=20;fillColor=none;" vertex="1" parent="1">
          <mxGeometry x="879.22" y="1981" width="50" height="69" as="geometry" />
        </mxCell>
        <mxCell id="RXlQQFgITEn8rvyz34GZ-235" value="" style="group" vertex="1" connectable="0" parent="1">
          <mxGeometry x="710" y="2091" width="400" height="60" as="geometry" />
        </mxCell>
        <mxCell id="RXlQQFgITEn8rvyz34GZ-12" value="" style="verticalLabelPosition=bottom;verticalAlign=top;html=1;shape=mxgraph.basic.patternFillRect;fillStyle=hor;step=5;fillStrokeWidth=0.2;fillStrokeColor=#dddddd;shadow=0;sketch=0;strokeColor=#000000;gradientColor=#ffffff;gradientDirection=north;fillColor=none;strokeWidth=2;" vertex="1" parent="RXlQQFgITEn8rvyz34GZ-235">
          <mxGeometry width="400" height="60" as="geometry" />
        </mxCell>
        <mxCell id="RXlQQFgITEn8rvyz34GZ-13" value="&lt;p&gt;&lt;b style=&quot;font-family: &amp;quot;Times New Roman&amp;quot;; font-size: 27px;&quot;&gt;Lexicon matcher&lt;/b&gt;&lt;br&gt;&lt;/p&gt;" style="text;html=1;resizable=0;autosize=1;align=center;verticalAlign=middle;points=[];fillColor=none;strokeColor=none;rounded=0;shadow=0;dashed=1;sketch=0;fillStyle=auto;" vertex="1" parent="RXlQQFgITEn8rvyz34GZ-235">
          <mxGeometry x="98.80952380952385" y="6" width="210" height="50" as="geometry" />
        </mxCell>
        <mxCell id="RXlQQFgITEn8rvyz34GZ-236" value="" style="rounded=0;whiteSpace=wrap;html=1;" vertex="1" parent="1">
          <mxGeometry x="200" y="2000" width="400" height="181" as="geometry" />
        </mxCell>
        <mxCell id="RXlQQFgITEn8rvyz34GZ-241" style="edgeStyle=orthogonalEdgeStyle;rounded=0;orthogonalLoop=1;jettySize=auto;html=1;entryX=0.5;entryY=1;entryDx=0;entryDy=0;" edge="1" parent="1" source="RXlQQFgITEn8rvyz34GZ-239" target="RXlQQFgITEn8rvyz34GZ-236">
          <mxGeometry relative="1" as="geometry" />
        </mxCell>
        <mxCell id="RXlQQFgITEn8rvyz34GZ-242" style="edgeStyle=orthogonalEdgeStyle;rounded=0;orthogonalLoop=1;jettySize=auto;html=1;entryX=0.5;entryY=1;entryDx=0;entryDy=0;entryPerimeter=0;" edge="1" parent="1" source="RXlQQFgITEn8rvyz34GZ-239" target="RXlQQFgITEn8rvyz34GZ-12">
          <mxGeometry relative="1" as="geometry" />
        </mxCell>
        <mxCell id="RXlQQFgITEn8rvyz34GZ-239" value="" style="verticalLabelPosition=bottom;verticalAlign=top;html=1;shape=mxgraph.basic.rect;fillColor2=none;strokeWidth=3;size=20;indent=5;shadow=0;sketch=0;fillStyle=auto;fontFamily=Times New Roman;fontSize=27;fillColor=none;gradientDirection=north;dashed=1;fontColor=#333333;strokeColor=#808080;" vertex="1" parent="1">
          <mxGeometry x="490" y="2220" width="300" height="70" as="geometry" />
        </mxCell>
        <mxCell id="RXlQQFgITEn8rvyz34GZ-244" value="" style="rounded=0;whiteSpace=wrap;html=1;" vertex="1" parent="1">
          <mxGeometry x="195" y="1520" width="960" height="360" as="geometry" />
        </mxCell>
        <mxCell id="RXlQQFgITEn8rvyz34GZ-245" value="" style="group" vertex="1" connectable="0" parent="1">
          <mxGeometry x="280" y="2132" width="240" height="30" as="geometry" />
        </mxCell>
        <mxCell id="RXlQQFgITEn8rvyz34GZ-246" value="" style="verticalLabelPosition=bottom;verticalAlign=top;html=1;shape=mxgraph.basic.patternFillRect;fillStyle=auto;step=5;fillStrokeWidth=0.2;fillStrokeColor=#dddddd;gradientDirection=north;strokeColor=#36393d;shadow=0;sketch=0;fillColor=#eeeeee;" vertex="1" parent="RXlQQFgITEn8rvyz34GZ-245">
          <mxGeometry width="30" height="30" as="geometry" />
        </mxCell>
        <mxCell id="RXlQQFgITEn8rvyz34GZ-247" value="" style="verticalLabelPosition=bottom;verticalAlign=top;html=1;shape=mxgraph.basic.patternFillRect;fillStyle=auto;step=5;fillStrokeWidth=0.2;fillStrokeColor=#dddddd;gradientDirection=north;strokeColor=#36393d;shadow=0;sketch=0;fillColor=#eeeeee;" vertex="1" parent="RXlQQFgITEn8rvyz34GZ-245">
          <mxGeometry x="120" width="30" height="30" as="geometry" />
        </mxCell>
        <mxCell id="RXlQQFgITEn8rvyz34GZ-248" value="" style="verticalLabelPosition=bottom;verticalAlign=top;html=1;shape=mxgraph.basic.patternFillRect;fillStyle=auto;step=5;fillStrokeWidth=0.2;fillStrokeColor=#dddddd;gradientDirection=north;strokeColor=#36393d;shadow=0;sketch=0;fillColor=#eeeeee;" vertex="1" parent="RXlQQFgITEn8rvyz34GZ-245">
          <mxGeometry x="30" width="30" height="30" as="geometry" />
        </mxCell>
        <mxCell id="RXlQQFgITEn8rvyz34GZ-249" value="" style="verticalLabelPosition=bottom;verticalAlign=top;html=1;shape=mxgraph.basic.patternFillRect;fillStyle=auto;step=5;fillStrokeWidth=0.2;fillStrokeColor=#dddddd;gradientDirection=north;strokeColor=#36393d;shadow=0;sketch=0;fillColor=#eeeeee;" vertex="1" parent="RXlQQFgITEn8rvyz34GZ-245">
          <mxGeometry x="150" width="30" height="30" as="geometry" />
        </mxCell>
        <mxCell id="RXlQQFgITEn8rvyz34GZ-250" value="" style="verticalLabelPosition=bottom;verticalAlign=top;html=1;shape=mxgraph.basic.patternFillRect;fillStyle=auto;step=5;fillStrokeWidth=0.2;fillStrokeColor=#dddddd;gradientDirection=north;strokeColor=#36393d;shadow=0;sketch=0;fillColor=#eeeeee;" vertex="1" parent="RXlQQFgITEn8rvyz34GZ-245">
          <mxGeometry x="60" width="30" height="30" as="geometry" />
        </mxCell>
        <mxCell id="RXlQQFgITEn8rvyz34GZ-251" value="" style="verticalLabelPosition=bottom;verticalAlign=top;html=1;shape=mxgraph.basic.patternFillRect;fillStyle=auto;step=5;fillStrokeWidth=0.2;fillStrokeColor=#dddddd;gradientDirection=north;strokeColor=#36393d;shadow=0;sketch=0;fillColor=#eeeeee;" vertex="1" parent="RXlQQFgITEn8rvyz34GZ-245">
          <mxGeometry x="180" width="30" height="30" as="geometry" />
        </mxCell>
        <mxCell id="RXlQQFgITEn8rvyz34GZ-252" value="" style="verticalLabelPosition=bottom;verticalAlign=top;html=1;shape=mxgraph.basic.patternFillRect;fillStyle=auto;step=5;fillStrokeWidth=0.2;fillStrokeColor=#dddddd;gradientDirection=north;strokeColor=#36393d;shadow=0;sketch=0;fillColor=#eeeeee;" vertex="1" parent="RXlQQFgITEn8rvyz34GZ-245">
          <mxGeometry x="90" width="30" height="30" as="geometry" />
        </mxCell>
        <mxCell id="RXlQQFgITEn8rvyz34GZ-253" value="" style="verticalLabelPosition=bottom;verticalAlign=top;html=1;shape=mxgraph.basic.patternFillRect;fillStyle=auto;step=5;fillStrokeWidth=0.2;fillStrokeColor=#dddddd;gradientDirection=north;strokeColor=#36393d;shadow=0;sketch=0;fillColor=#eeeeee;" vertex="1" parent="RXlQQFgITEn8rvyz34GZ-245">
          <mxGeometry x="210" width="30" height="30" as="geometry" />
        </mxCell>
        <mxCell id="RXlQQFgITEn8rvyz34GZ-254" value="" style="group" vertex="1" connectable="0" parent="1">
          <mxGeometry x="280" y="2078" width="240" height="30" as="geometry" />
        </mxCell>
        <mxCell id="RXlQQFgITEn8rvyz34GZ-255" value="" style="verticalLabelPosition=bottom;verticalAlign=top;html=1;shape=mxgraph.basic.patternFillRect;fillStyle=auto;step=5;fillStrokeWidth=0.2;fillStrokeColor=#dddddd;gradientDirection=north;strokeColor=#36393d;shadow=0;sketch=0;fillColor=#eeeeee;" vertex="1" parent="RXlQQFgITEn8rvyz34GZ-254">
          <mxGeometry width="30" height="30" as="geometry" />
        </mxCell>
        <mxCell id="RXlQQFgITEn8rvyz34GZ-256" value="" style="verticalLabelPosition=bottom;verticalAlign=top;html=1;shape=mxgraph.basic.patternFillRect;fillStyle=auto;step=5;fillStrokeWidth=0.2;fillStrokeColor=#dddddd;gradientDirection=north;strokeColor=#36393d;shadow=0;sketch=0;fillColor=#eeeeee;" vertex="1" parent="RXlQQFgITEn8rvyz34GZ-254">
          <mxGeometry x="120" width="30" height="30" as="geometry" />
        </mxCell>
        <mxCell id="RXlQQFgITEn8rvyz34GZ-257" value="" style="verticalLabelPosition=bottom;verticalAlign=top;html=1;shape=mxgraph.basic.patternFillRect;fillStyle=auto;step=5;fillStrokeWidth=0.2;fillStrokeColor=#dddddd;gradientDirection=north;strokeColor=#36393d;shadow=0;sketch=0;fillColor=#eeeeee;" vertex="1" parent="RXlQQFgITEn8rvyz34GZ-254">
          <mxGeometry x="30" width="30" height="30" as="geometry" />
        </mxCell>
        <mxCell id="RXlQQFgITEn8rvyz34GZ-258" value="" style="verticalLabelPosition=bottom;verticalAlign=top;html=1;shape=mxgraph.basic.patternFillRect;fillStyle=auto;step=5;fillStrokeWidth=0.2;fillStrokeColor=#dddddd;gradientDirection=north;strokeColor=#36393d;shadow=0;sketch=0;fillColor=#eeeeee;" vertex="1" parent="RXlQQFgITEn8rvyz34GZ-254">
          <mxGeometry x="150" width="30" height="30" as="geometry" />
        </mxCell>
        <mxCell id="RXlQQFgITEn8rvyz34GZ-259" value="" style="verticalLabelPosition=bottom;verticalAlign=top;html=1;shape=mxgraph.basic.patternFillRect;fillStyle=auto;step=5;fillStrokeWidth=0.2;fillStrokeColor=#dddddd;gradientDirection=north;strokeColor=#36393d;shadow=0;sketch=0;fillColor=#eeeeee;" vertex="1" parent="RXlQQFgITEn8rvyz34GZ-254">
          <mxGeometry x="60" width="30" height="30" as="geometry" />
        </mxCell>
        <mxCell id="RXlQQFgITEn8rvyz34GZ-260" value="" style="verticalLabelPosition=bottom;verticalAlign=top;html=1;shape=mxgraph.basic.patternFillRect;fillStyle=auto;step=5;fillStrokeWidth=0.2;fillStrokeColor=#dddddd;gradientDirection=north;strokeColor=#36393d;shadow=0;sketch=0;fillColor=#eeeeee;" vertex="1" parent="RXlQQFgITEn8rvyz34GZ-254">
          <mxGeometry x="180" width="30" height="30" as="geometry" />
        </mxCell>
        <mxCell id="RXlQQFgITEn8rvyz34GZ-261" value="" style="verticalLabelPosition=bottom;verticalAlign=top;html=1;shape=mxgraph.basic.patternFillRect;fillStyle=auto;step=5;fillStrokeWidth=0.2;fillStrokeColor=#dddddd;gradientDirection=north;strokeColor=#36393d;shadow=0;sketch=0;fillColor=#eeeeee;" vertex="1" parent="RXlQQFgITEn8rvyz34GZ-254">
          <mxGeometry x="90" width="30" height="30" as="geometry" />
        </mxCell>
        <mxCell id="RXlQQFgITEn8rvyz34GZ-262" value="" style="verticalLabelPosition=bottom;verticalAlign=top;html=1;shape=mxgraph.basic.patternFillRect;fillStyle=auto;step=5;fillStrokeWidth=0.2;fillStrokeColor=#dddddd;gradientDirection=north;strokeColor=#36393d;shadow=0;sketch=0;fillColor=#eeeeee;" vertex="1" parent="RXlQQFgITEn8rvyz34GZ-254">
          <mxGeometry x="210" width="30" height="30" as="geometry" />
        </mxCell>
        <mxCell id="RXlQQFgITEn8rvyz34GZ-263" value="" style="group" vertex="1" connectable="0" parent="1">
          <mxGeometry x="280" y="2023.5" width="240" height="30" as="geometry" />
        </mxCell>
        <mxCell id="RXlQQFgITEn8rvyz34GZ-264" value="" style="verticalLabelPosition=bottom;verticalAlign=top;html=1;shape=mxgraph.basic.patternFillRect;fillStyle=auto;step=5;fillStrokeWidth=0.2;fillStrokeColor=#dddddd;gradientDirection=north;strokeColor=#36393d;shadow=0;sketch=0;fillColor=#eeeeee;" vertex="1" parent="RXlQQFgITEn8rvyz34GZ-263">
          <mxGeometry width="30" height="30" as="geometry" />
        </mxCell>
        <mxCell id="RXlQQFgITEn8rvyz34GZ-265" value="" style="verticalLabelPosition=bottom;verticalAlign=top;html=1;shape=mxgraph.basic.patternFillRect;fillStyle=auto;step=5;fillStrokeWidth=0.2;fillStrokeColor=#dddddd;gradientDirection=north;strokeColor=#36393d;shadow=0;sketch=0;fillColor=#eeeeee;" vertex="1" parent="RXlQQFgITEn8rvyz34GZ-263">
          <mxGeometry x="120" width="30" height="30" as="geometry" />
        </mxCell>
        <mxCell id="RXlQQFgITEn8rvyz34GZ-266" value="" style="verticalLabelPosition=bottom;verticalAlign=top;html=1;shape=mxgraph.basic.patternFillRect;fillStyle=auto;step=5;fillStrokeWidth=0.2;fillStrokeColor=#dddddd;gradientDirection=north;strokeColor=#36393d;shadow=0;sketch=0;fillColor=#eeeeee;" vertex="1" parent="RXlQQFgITEn8rvyz34GZ-263">
          <mxGeometry x="30" width="30" height="30" as="geometry" />
        </mxCell>
        <mxCell id="RXlQQFgITEn8rvyz34GZ-267" value="" style="verticalLabelPosition=bottom;verticalAlign=top;html=1;shape=mxgraph.basic.patternFillRect;fillStyle=auto;step=5;fillStrokeWidth=0.2;fillStrokeColor=#dddddd;gradientDirection=north;strokeColor=#36393d;shadow=0;sketch=0;fillColor=#eeeeee;" vertex="1" parent="RXlQQFgITEn8rvyz34GZ-263">
          <mxGeometry x="150" width="30" height="30" as="geometry" />
        </mxCell>
        <mxCell id="RXlQQFgITEn8rvyz34GZ-268" value="" style="verticalLabelPosition=bottom;verticalAlign=top;html=1;shape=mxgraph.basic.patternFillRect;fillStyle=auto;step=5;fillStrokeWidth=0.2;fillStrokeColor=#dddddd;gradientDirection=north;strokeColor=#36393d;shadow=0;sketch=0;fillColor=#eeeeee;" vertex="1" parent="RXlQQFgITEn8rvyz34GZ-263">
          <mxGeometry x="60" width="30" height="30" as="geometry" />
        </mxCell>
        <mxCell id="RXlQQFgITEn8rvyz34GZ-269" value="" style="verticalLabelPosition=bottom;verticalAlign=top;html=1;shape=mxgraph.basic.patternFillRect;fillStyle=auto;step=5;fillStrokeWidth=0.2;fillStrokeColor=#dddddd;gradientDirection=north;strokeColor=#36393d;shadow=0;sketch=0;fillColor=#eeeeee;" vertex="1" parent="RXlQQFgITEn8rvyz34GZ-263">
          <mxGeometry x="180" width="30" height="30" as="geometry" />
        </mxCell>
        <mxCell id="RXlQQFgITEn8rvyz34GZ-270" value="" style="verticalLabelPosition=bottom;verticalAlign=top;html=1;shape=mxgraph.basic.patternFillRect;fillStyle=auto;step=5;fillStrokeWidth=0.2;fillStrokeColor=#dddddd;gradientDirection=north;strokeColor=#36393d;shadow=0;sketch=0;fillColor=#eeeeee;" vertex="1" parent="RXlQQFgITEn8rvyz34GZ-263">
          <mxGeometry x="90" width="30" height="30" as="geometry" />
        </mxCell>
        <mxCell id="RXlQQFgITEn8rvyz34GZ-271" value="" style="verticalLabelPosition=bottom;verticalAlign=top;html=1;shape=mxgraph.basic.patternFillRect;fillStyle=auto;step=5;fillStrokeWidth=0.2;fillStrokeColor=#dddddd;gradientDirection=north;strokeColor=#36393d;shadow=0;sketch=0;fillColor=#eeeeee;" vertex="1" parent="RXlQQFgITEn8rvyz34GZ-263">
          <mxGeometry x="210" width="30" height="30" as="geometry" />
        </mxCell>
        <mxCell id="RXlQQFgITEn8rvyz34GZ-272" value="" style="group" vertex="1" connectable="0" parent="1">
          <mxGeometry x="280" y="1949.5" width="240" height="30" as="geometry" />
        </mxCell>
        <mxCell id="RXlQQFgITEn8rvyz34GZ-273" value="" style="verticalLabelPosition=bottom;verticalAlign=top;html=1;shape=mxgraph.basic.patternFillRect;fillStyle=auto;step=5;fillStrokeWidth=0.2;fillStrokeColor=#dddddd;gradientDirection=north;strokeColor=#36393d;shadow=0;sketch=0;fillColor=#eeeeee;" vertex="1" parent="RXlQQFgITEn8rvyz34GZ-272">
          <mxGeometry width="30" height="30" as="geometry" />
        </mxCell>
        <mxCell id="RXlQQFgITEn8rvyz34GZ-274" value="" style="verticalLabelPosition=bottom;verticalAlign=top;html=1;shape=mxgraph.basic.patternFillRect;fillStyle=auto;step=5;fillStrokeWidth=0.2;fillStrokeColor=#dddddd;gradientDirection=north;strokeColor=#36393d;shadow=0;sketch=0;fillColor=#eeeeee;" vertex="1" parent="RXlQQFgITEn8rvyz34GZ-272">
          <mxGeometry x="120" width="30" height="30" as="geometry" />
        </mxCell>
        <mxCell id="RXlQQFgITEn8rvyz34GZ-275" value="" style="verticalLabelPosition=bottom;verticalAlign=top;html=1;shape=mxgraph.basic.patternFillRect;fillStyle=auto;step=5;fillStrokeWidth=0.2;fillStrokeColor=#dddddd;gradientDirection=north;strokeColor=#36393d;shadow=0;sketch=0;fillColor=#eeeeee;" vertex="1" parent="RXlQQFgITEn8rvyz34GZ-272">
          <mxGeometry x="30" width="30" height="30" as="geometry" />
        </mxCell>
        <mxCell id="RXlQQFgITEn8rvyz34GZ-276" value="" style="verticalLabelPosition=bottom;verticalAlign=top;html=1;shape=mxgraph.basic.patternFillRect;fillStyle=auto;step=5;fillStrokeWidth=0.2;fillStrokeColor=#dddddd;gradientDirection=north;strokeColor=#36393d;shadow=0;sketch=0;fillColor=#eeeeee;" vertex="1" parent="RXlQQFgITEn8rvyz34GZ-272">
          <mxGeometry x="150" width="30" height="30" as="geometry" />
        </mxCell>
        <mxCell id="RXlQQFgITEn8rvyz34GZ-277" value="" style="verticalLabelPosition=bottom;verticalAlign=top;html=1;shape=mxgraph.basic.patternFillRect;fillStyle=auto;step=5;fillStrokeWidth=0.2;fillStrokeColor=#dddddd;gradientDirection=north;strokeColor=#36393d;shadow=0;sketch=0;fillColor=#eeeeee;" vertex="1" parent="RXlQQFgITEn8rvyz34GZ-272">
          <mxGeometry x="60" width="30" height="30" as="geometry" />
        </mxCell>
        <mxCell id="RXlQQFgITEn8rvyz34GZ-278" value="" style="verticalLabelPosition=bottom;verticalAlign=top;html=1;shape=mxgraph.basic.patternFillRect;fillStyle=auto;step=5;fillStrokeWidth=0.2;fillStrokeColor=#dddddd;gradientDirection=north;strokeColor=#36393d;shadow=0;sketch=0;fillColor=#eeeeee;" vertex="1" parent="RXlQQFgITEn8rvyz34GZ-272">
          <mxGeometry x="180" width="30" height="30" as="geometry" />
        </mxCell>
        <mxCell id="RXlQQFgITEn8rvyz34GZ-279" value="" style="verticalLabelPosition=bottom;verticalAlign=top;html=1;shape=mxgraph.basic.patternFillRect;fillStyle=auto;step=5;fillStrokeWidth=0.2;fillStrokeColor=#dddddd;gradientDirection=north;strokeColor=#36393d;shadow=0;sketch=0;fillColor=#eeeeee;" vertex="1" parent="RXlQQFgITEn8rvyz34GZ-272">
          <mxGeometry x="90" width="30" height="30" as="geometry" />
        </mxCell>
        <mxCell id="RXlQQFgITEn8rvyz34GZ-280" value="" style="verticalLabelPosition=bottom;verticalAlign=top;html=1;shape=mxgraph.basic.patternFillRect;fillStyle=auto;step=5;fillStrokeWidth=0.2;fillStrokeColor=#dddddd;gradientDirection=north;strokeColor=#36393d;shadow=0;sketch=0;fillColor=#eeeeee;" vertex="1" parent="RXlQQFgITEn8rvyz34GZ-272">
          <mxGeometry x="210" width="30" height="30" as="geometry" />
        </mxCell>
        <mxCell id="RXlQQFgITEn8rvyz34GZ-281" value="" style="rounded=0;whiteSpace=wrap;html=1;" vertex="1" parent="1">
          <mxGeometry x="235" y="1780" width="375" height="60" as="geometry" />
        </mxCell>
        <mxCell id="RXlQQFgITEn8rvyz34GZ-291" value="" style="rounded=0;whiteSpace=wrap;html=1;" vertex="1" parent="1">
          <mxGeometry x="235" y="1670" width="65" height="60" as="geometry" />
        </mxCell>
        <mxCell id="RXlQQFgITEn8rvyz34GZ-292" value="" style="rounded=0;whiteSpace=wrap;html=1;" vertex="1" parent="1">
          <mxGeometry x="235" y="1560" width="885" height="60" as="geometry" />
        </mxCell>
      </root>
    </mxGraphModel>
  </diagram>
</mxfile>
